<?xml version="1.0" encoding="utf-8"?>
<!-- Generator: Adobe Illustrator 25.1.0, SVG Export Plug-In . SVG Version: 6.00 Build 0)  -->
<svg version="1.1" id="Слой_1" xmlns="http://www.w3.org/2000/svg" xmlns:xlink="http://www.w3.org/1999/xlink" x="0px" y="0px"
	 viewBox="0 0 225 93" style="enable-background:new 0 0 225 93;" xml:space="preserve">
<style type="text/css">
	.st0{fill:#929292;}
</style>
<g>
	<g>
		<g>
			<g>
				<g>
					<path class="st0" d="M34.63,74.53l4.08,1.74l0,0l0,0l0,0l-0.01,0l-0.02-0.01l-0.03-0.02l-0.07-0.04
						c-0.05-0.03-0.1-0.06-0.14-0.08c-0.11-0.06-0.21-0.12-0.31-0.17c-0.22-0.11-0.45-0.23-0.7-0.34c-0.49-0.22-1.01-0.43-1.48-0.58
						c-0.25-0.09-0.73-0.28-1.55-0.59l-0.16-0.05C34.34,74.42,34.49,74.47,34.63,74.53z"/>
					<path class="st0" d="M28.27,75.89c1.48-0.01,3.47-0.45,5.6-1.33c0.52-0.22,0.89-0.38,1.15-0.49c0.01-0.01-0.01,0-0.08,0.04
						c-0.2,0.09-0.31,0.12-0.42,0.16c-0.05,0.01-0.09,0.03-0.15,0.04c-0.26,0.06-0.54,0.11-0.85,0.18
						c-0.59,0.11-1.29,0.23-2.14,0.32c-0.37-0.09,0.1-0.3,0.93-0.38c0.42-0.04,0.93-0.06,1.47-0.07c0.12,0,0.16,0,0.25,0
						c-0.02,0-0.01,0-0.01,0l0.04,0.01l0.04,0.01c-0.39-0.08-0.74-0.15-1.08-0.22c-2.28-0.39-3.53-0.09-3.67,0.29
						c-0.15,0.37,0.84,0.78,2.74,0.48C30.87,75.36,29.35,75.69,28.27,75.89z"/>
					<path class="st0" d="M89.42,70.52L89,69.82C89.12,70.21,89.26,70.42,89.42,70.52z"/>
					<path class="st0" d="M129.32,77.37c-0.33,0.1-0.55,0.66-0.64,1.19C129.02,78.22,129.31,77.89,129.32,77.37z"/>
					<path class="st0" d="M135.22,84.92c-0.12-0.21-0.23-0.31-0.34-0.46C134.95,85.02,135.05,85.35,135.22,84.92z"/>
					<path class="st0" d="M89.42,70.52l1.06,1.86C90.54,70.44,89.93,70.93,89.42,70.52z"/>
					<path class="st0" d="M30.93,65.42c0.15,0.65,0.28,1.24,0.39,1.8c0.05,0.28,0.1,0.55,0.15,0.82c0.04,0.29,0.11,0.38,0.16,0.57
						l-0.09-0.27l-0.04-0.13l-0.04-0.2l-0.15-0.8c-0.1-0.47-0.2-0.94-0.3-1.42C30.99,65.67,30.97,65.57,30.93,65.42z"/>
					<path class="st0" d="M72.85,77.04l-0.34,0.06c0,0.68,0.03,1.51,0.08,2.44L72.85,77.04z"/>
					<path class="st0" d="M63.92,80.51c0.34,0.07-1.9-4.47-2.81-6.49c0.81,1.93,1.08,2.91,1.04,3.37
						C62.59,78.25,63.16,79.25,63.92,80.51z"/>
					<path class="st0" d="M39.55,83.48l-0.18,0.82C39.41,84.06,39.53,83.79,39.55,83.48z"/>
					<path class="st0" d="M82.33,76.86c0.09,0.75,0.2,1.4,0.28,1.79C82.55,78.01,82.45,77.42,82.33,76.86z"/>
					<path class="st0" d="M46.66,54.64c-0.36-0.01-0.59,0.02-0.9,0.02C46.26,54.79,46.62,54.83,46.66,54.64z"/>
					<path class="st0" d="M19.47,70.71l-0.39-0.21c-1.05-0.03-2.02-0.07-2.95-0.1L19.47,70.71z"/>
					<path class="st0" d="M146.55,93.45c-0.01-0.06-0.02-0.06-0.04-0.11C146.08,93.85,146.29,93.78,146.55,93.45z"/>
					<path class="st0" d="M202.35,4.34c-0.24,2.36-2.01,3.83-3.55,5.39c-1.59,1.56-2.9,3.22-2.98,5.79c0.44-1.02,2.2-3.07,3.86-5.21
						C201.32,8.15,202.86,5.9,202.35,4.34z"/>
					<path class="st0" d="M30.99,65.51c0-0.06,0.01-0.11,0.04-0.06C30.95,65.29,30.95,65.32,30.99,65.51z"/>
					<path class="st0" d="M195.82,15.52l-0.03,0.05l0,0.49C195.8,15.83,195.81,15.71,195.82,15.52z"/>
					<path class="st0" d="M177.53,96.48c0.05-0.89,0-1.59-0.05-2.25C177.41,94.74,177.4,95.38,177.53,96.48z"/>
					<path class="st0" d="M155.78,84.78l0.4,0.77C156.05,85.06,155.91,84.87,155.78,84.78z"/>
					<path class="st0" d="M194.05,90c0.73,0.29,1.11,0.96,2.14,0.06c-0.16-0.23-0.3-0.39-0.47-0.53
						C195.47,90.28,194.93,90.7,194.05,90z"/>
					<path class="st0" d="M210.86,72.63c-0.4-0.08-0.72-0.09-1.08-0.15c0.03,0.21,0.03,0.46,0.04,0.68L210.86,72.63z"/>
					<path class="st0" d="M20,39.79c0.1-0.6,0.14-0.98,0.17-1.17c-0.01,0.08,0.01-0.05,0.03-0.24c0-0.05,0.01-0.1,0.01-0.15
						l0.29-2.93l0,0.01l0,0.01l0,0.02l0,0.04c-0.01,0.06-0.01,0.11-0.01,0.15c-0.01,0.08-0.01,0.09,0-0.05
						c0-0.04,0.01-0.08,0.01-0.14l0.01-0.05c-0.09,0.95-0.19,1.95-0.29,2.99c-0.01,0.06-0.01,0.12-0.02,0.19
						c-0.02,0.14-0.04,0.31-0.06,0.5C20.09,39.22,20.05,39.49,20,39.79z"/>
					<path class="st0" d="M31.5,67.64c-0.13-0.55-0.26-1.1-0.51-2.13c0.01,0.1,0.02,0.19,0.03,0.28
						C31.2,66.52,31.37,67.21,31.5,67.64z"/>
					<path class="st0" d="M191.25,66.58c0.24,1.4,0.49,2.43,0.75,3.24c0.13,0.42,0.25,0.75,0.38,1.05l0.03,0.06l0.01,0.03l0,0.01
						l0,0c0.06,0.15-0.56-1.3-0.3-0.68l0,0l0,0l0,0.01l0.04,0.12l0.09,0.23c0.07,0.15,0.14,0.3,0.23,0.45
						c-0.14-0.25-0.27-0.53-0.37-0.82l0,0c0.59,1.37,0.16,0.38,0.3,0.68l0,0l0,0l0-0.01l-0.01-0.01l-0.01-0.03l-0.02-0.05
						l-0.05-0.11l-0.09-0.23c-0.07-0.18-0.12-0.34-0.19-0.55C191.77,69.16,191.5,68.08,191.25,66.58z"/>
					<path class="st0" d="M107.77,46.83l-0.53,0.58C107.43,47.54,107.61,47.4,107.77,46.83z"/>
					<path class="st0" d="M176.78,56.75c1.37,0.87,2.16,1.3,2.68,1.53c-0.3-0.21-0.55-0.38-1-0.67
						C177.9,57.36,177.34,57.07,176.78,56.75z"/>
					<path class="st0" d="M20.17,38.61C20.16,38.62,20.16,38.62,20.17,38.61C20.16,38.62,20.16,38.62,20.17,38.61z"/>
					<path class="st0" d="M35.67,31.13c-0.15,0.01-0.19,0.01-0.21,0.01c-0.23,0,0.92-0.03-2.06,0.07c-0.47-0.04-0.4-0.1,0.03-0.11
						c0.21-0.01,0.51,0,0.88,0.01c0.47,0.01,0.76,0.02,1.03,0.03c0,0-0.01,0,0,0c0,0-0.01,0,0.02,0l0.01,0l0,0l0,0l0,0l0,0l0,0
						l-3.55-0.43l-0.16-0.02l-1.25-0.15c-1.55-0.2-3.09-0.4-4.62-0.59c-0.8-0.11-1.59-0.22-2.37-0.33
						c-0.47-0.07-0.95-0.14-1.42-0.21c-0.34-0.06-0.67-0.11-1.01-0.17c-1.12-0.2-1.69-0.34-2.1-0.45c-0.4-0.11-0.65-0.2-0.83-0.27
						c-0.33-0.14-0.38-0.21-0.32-0.15l0.01,0.01l0,0c-0.02-0.01,0.04,0.03-0.04-0.03l0,0l0.02,0.02c0.02,0.02,0.05,0.04,0.06,0.05
						c0.05,0.04-0.02-0.02-0.05-0.04c0.22,0.18,0.77,0.8,1.23,1.74c0.48,0.94,0.9,2.22,1.13,3.34c0.24,1.12,0.31,2.01,0.32,2.31
						l0,0.13c0,0,0,0.03,0-0.05c0-0.07,0.01-0.14,0.01-0.21l0.01-0.17l0.01-0.08l0-0.04l0-0.02l0-0.01l0-0.01l0,0
						c-0.13,1.3,0.29-2.92-0.29,2.92l0,0c-0.02,0.21-0.03,0.32-0.04,0.39c0.31-3.14,0.43-4.39,0.56-5.77
						c0.16-0.04,0.49-1.06,0.78-1.51c0.28-0.45,0.46-0.35,0.08,1.8c-0.26-0.19-0.62,1.53-0.92,2.86c0.19-0.61,0.44-1.2,0.72-1.78
						c-0.52,3.09-0.81,3.57-0.97,3.89c-0.08,0.16-0.15,0.26-0.22,0.62c-0.04,0.18-0.09,0.42-0.14,0.76
						c-0.01,0.09-0.03,0.16-0.04,0.24c0-0.02,0.01-0.04,0.01-0.06c0-0.02,0.01-0.03,0.01-0.05c-0.04,0.27-0.09,0.54-0.13,0.81
						c0.02-0.15,0.06-0.3,0.1-0.46c0.08-0.32,0.2-0.67,0.35-1.02c0.29-0.7,0.71-1.39,1.17-1.95c0.91-1.12,1.94-1.67,2.33-0.62
						c-0.79,2.96-1.77,3.18-2.34,3.45c-0.57,0.27-0.9,0.53-1.14,3.3c-0.25-0.9-0.32-1.73-0.32-2.53c-0.48,2.37-0.79,3.49-0.93,4.02
						c-0.16,0.53-0.17,0.46-0.17,0.42c0-0.02-0.01-0.04-0.03,0.03c-0.02,0.07-0.03,0.12-0.04,0.17l-0.02,0.07l-0.01,0.04l0.01-0.04
						c0.01-0.05,0.02-0.08,0.03-0.12c0.03-0.11,0.01-0.02-0.09,0.35c-0.12,0.48-0.32,1.27-0.63,2.5c-0.19,0.7-0.37,1.39-0.55,2.05
						l-0.02,0.11c-0.02,0.06,0.02,0.11,0.03,0.14c0.06,0.06,0.17,0.05,0.32,0c0.31-0.09,0.72-0.37,1.22-0.61
						c0.51-0.25,1.08-0.47,1.76-0.45c0.66,0.01,1.36,0.25,2.15,0.93c1.68-3.06,1.07-4.92,2.71-7.99c1.54-1.18,2.25-0.8,2.63,0.33
						c0.38,1.15,0.42,3.04,0.46,4.89c0.06,3.67,0.23,7.11,2.78,3.41c0.81-1.93,1.58-4.8,2.35-6.64c0.78-1.84,1.53-2.65,2.5-0.48
						c-0.53,2.26-1.09,4.51-1.66,6.76c1.68,0.55,2.42-1.9,3.08-3.82c0.67-1.95,1.23-3.37,2.76-0.96c-0.75,2.69-2.73,2.1-2.29,2.96
						c1.91,5.61,1.88-3.79,3.51-3.71l0.12,6.13c1.85-0.42,3.78-1.75,5.63-3.18c0.91-0.72,1.81-1.46,2.7-2.09
						c0.87-0.66,1.73-1.21,2.6-1.57c-0.02,1.83-0.5,3.79,0.56,5.58c2.19-1.76,4.6-1.87,7-1.22c2.44,0.66,4.88,2.11,7.1,3.56
						l0.46-5.45c0.34,0,1.03,2.24,0.86,3.31c1.76,1.72-0.52-3.31-0.23-5.47c0.72-0.51,1.57,2.8,1.36,4.45
						c0.4-1.21,0.93-2.49,1.51-3.63c0.6-1.15,1.27-2.17,1.98-2.86c1.44-1.4,3.06-1.51,4.5,1.16l-0.22,1.61
						c0.97,0.95,1.07-1.78,1.28-4.18c0.19-2.39,0.51-4.46,1.49-2.06l-0.21,0.96c1.91,0.98,3.52,0.28,5.3,0.37
						c1.76,0.1,3.54,0.98,4.71,5.07c1.12-7.56,3.69,3.71,4.97-6.82c1,2.73,1.3,4.56,1.74,6.18c0.46,1.62,1.03,3.04,2.85,4.98
						c1.02,0.57,2.14-6.47,3.51-7.49l-0.36,5.54c0.75-1.89,1.48-3.79,2.18-5.69l0.59,6.68l1.34-1.36c-0.49-0.35-0.94-2.54-0.78-4.13
						c1.03-1.21,2.14-0.18,3.04,1.48c0.89,1.67,1.56,3.99,1.55,5.41c1.62-1.53,3.2-3.07,4.74-4.64c-0.1,2.23-0.88,3-1.52,4.42
						c2.53-5.66,0.47,5.85,2.78,0.65c-0.32-1.25,0.14-3.31,0.18-4.43c1.16,3.35,3.83,3.32,5.69,1.82l-0.22,3.84
						c3.62,0.83,7.37-2.24,11.29-2.58c-1.6-1.63-1.89-8.26-0.87-9.01l1.06,5.78c0.33-3.68-1.39-2.08-0.4-6.64
						c1.45,0.52,1.71,6.52,1.07,8.51c0.52-0.74,1.01-1.48,1.51-2.22c0.31,1.73,0.01,2.69,0.16,4.92c0.15-1.85,1.09-0.48,1.99,0.55
						c0.92,1.03,1.84,1.72,1.9-1.48l0.32,1.72c3.57-0.42,4.73-2.63,7.2-3.23c-0.56-5.03,0.54-4.04,0.81-8.18
						c2.03,1.4,4.23,5.19,5.97,4.68c1.17-2.57,0.2-4.3,0.71-7.33c0.27,4.6,1.99,4.14,1.12,7.47c0.99-0.38,1.6-0.6,2.28-1.17
						c0.72-0.58,1.39-1.51,2.89-3.22c-0.04-1.91-0.29-2.76,0.06-4.3c0.6-0.71,0.95,2.07,0.54,4.25l-0.19,0.45
						c0.98-1.61,1.92-1.48,2.76-0.53c0.84,0.95,1.63,2.73,2.46,4.43c0.87,1.71,1.8,3.34,2.98,4.01c0.56,0.33,1.23,0.42,1.87,0.15
						c0.67-0.27,1.39-0.91,2.09-2.01l-0.31,0.43l0.66-0.54c0.11-0.09,0.23-0.18,0.32-0.27l0.15-0.3c0.15-0.4,0.3-0.8,0.47-1.2
						c0.34-0.8,0.73-1.6,1.16-2.4c0.25,0.42-0.09,1.26-0.46,2.35c-0.38,1.09-0.75,2.44-0.95,3.85c0.66-1.87,1.21-2.72,1.56-3.05
						c0.36-0.32,0.53-0.11,0.62,0.17c0.23,0.57,0,1.46,1.88-1.11c-3.33,6.67-3.32,6.44-2.31,5.54c0.47-0.45,1.15-1.05,1.29-1
						c0.13,0.05-0.3,0.78-2.29,2.99l3-3.27c3.18-3.22-1.55,1.87-2.25,2.62c2.49-2.55,2.68-2.94,4.51-4.73
						c1.41-0.97,2.24-1.22,2.38-0.73c0.17,0.51-0.64,1.9-2.07,3.11c-1.4,1.22-3.08,2.37-4.47,3.31c-1.41,0.94-2.57,1.66-3.29,2.06
						c-0.41,0.2,3.65-1.91,6.81-3.38c1.58-0.74,2.95-1.34,3.44-1.44c0.49-0.11,0.11,0.3-1.74,1.32c-1.88,0.68-3.76,1.43-5.66,2.24
						c1.68-0.62,2.5-0.62,2.94-0.47c0.11,0.03,0.2,0.09,0.29,0.23c0.09,0.14,0.13,0.17,0.17,0.25c0.07,0.13,0.09,0.28,0.11,0.42
						c0.02,0.29,0.01,0.54,0.4,0.8c0.38,0.27,1.2,0.55,2.79,1.09c-1.48-0.23-3.4-0.38-3.38-0.48c-2.34-0.05-2.4,0-1.47,0.26
						c0.94,0.25,2.81,0.76,4.62,1.13c-0.58,0.09-3.32-0.61-5.21-0.93c-1.34-0.24,0,0.11,1.02,0.49c1.03,0.36,1.77,0.73-0.26,0.14
						c-0.66-0.19-1.26-0.43-1.55-0.53c1.85,0.66-0.83,0.08,3.58,1.65c-1.23-0.24-0.9,0.07-0.67,0.47c0.24,0.37,0.48,0.85-0.66,0.35
						c2.12,1.47,1.62,1.47,1.34,1.47c-0.28,0.02-0.36,0.12,2.64,2.58c-1.56-1.24-2.66-2.03-3.4-2.53c-0.37-0.25-0.65-0.42-0.85-0.52
						c-0.1-0.05-0.18-0.09-0.25-0.11c-0.03-0.01-0.06-0.02-0.08-0.02l-0.03,0c0-0.01-0.02,0.02,0-0.01l0.12-0.14
						c0.33-0.38,0.68-0.75,1.06-1.11l0.14-0.13l0.07-0.07l0.04-0.03c-11.58-12.97,15.79,17.66,12.96,14.51l0,0l0,0l-0.01-0.01
						l-0.1-0.1c-0.06-0.07-0.12-0.14-0.17-0.21c-0.12-0.21-0.53-0.78-0.71-1.26l-0.07-0.18l-0.03-0.09l-0.01-0.02l0,0
						c-0.06-0.15,0.56,1.3,0.3,0.68l0-0.01l-0.01-0.01l-0.02-0.04c-0.05-0.12-0.1-0.23-0.14-0.35c-0.1-0.26-0.18-0.51-0.28-0.8
						c-0.07-0.26-0.18-0.58-0.24-0.85c-0.08-0.31-0.14-0.58-0.2-0.85c0.16,0.7-0.05-0.14-0.25-1.26c-0.08-0.51-0.2-1.21-0.23-1.49
						c-0.06-0.37-0.05-0.33,0.04,0.26c-0.26-1.76-0.5-3.97-0.74-7.41c-0.06-0.98-0.12-1.93-0.18-2.85c-0.06-1.2-0.12-2.36-0.18-3.49
						l-0.03-0.58c-0.01-0.14-0.01-0.11-0.01-0.1v0.02l0,0.07l0,0.14c-0.01,0.11-0.02,0.22-0.03,0.32c-0.16,0.92-0.31,2.34-0.19,4.43
						c-0.78-4.85-1.37-2.92-2.21-1.33c-0.8,1.57-1.74,2.76-1.54-3.49c-3.15,4.07-7.2,6.31-11.14,7.41c1.87-7.9,4,0.01,5.46-8.4
						c-3.62,2.69-7.2,9.01-10.36,6.34c-0.7-1.28,1.26-3.33,1.88-4.62c-4.33,2.48-6.92-2.21-11.02,1.49
						c0.15-0.74,0.66-1.48,1.11-2.02c-0.69,0.14-1.26-1.46-1.89,2.17l0.81-0.86c-0.03,5.45-4.66,10.49-5.28,13.25
						c3.06-10.18-2.66-3.21,1.53-16.02c-0.55,0.61-1.4,2.22-1.76,4.67c-0.49-0.82-0.43-2.28,0.72-4.92c-2.66,1.55-2.55,5.56-4.6,5.1
						c0.32-1.76,0.86-2.36,1.45-4.39c-1.68,3.24-3.33,6.48-4.81,4.69c0.29-1.04,0.33-2.46,0.85-2.34c-3.12,0.01-6.64,8.27-9.36,4.43
						c2.2-7.51-0.71-2.7,0.16-9.37l-2.09,1.7l0.21,3.33c-1.54-0.36-3.64,4.28-4.64,1.9l1.56-2.57l-3.09,0.83l1.27,2.76
						c-2.06,3.2-1.07,8.43-2.84,6.29c0.51-0.61-1.51-0.3-1.76-4.34c0,0,0.01,0,0.01-0.02c-1.06,2.01-2.14,4.14-3.05,2.33
						c-0.01-2.17,1.24-7.33,1.24-8.78c-1.51,5.46-3.85,1.06-5.56,6.88c0.49-1.35,0.96-4.85,0.95-5.58l-1.21,4.44
						c-0.53-1.54-0.55-2.25-0.08-5.03c-2.06-1.1-0.37,8.54-2.47,4.58c0.25-0.34,0.23-1.03,0.74-1.67c-2.35-2.22-5.31,2.28-7.45-0.2
						c-0.01-6.8,2.28-1.42,2.07-7.18c-1.82,0.42-3.87,2.25-5.82,3.76c-1.96,1.5-3.84,2.69-5.49,1.78l0.59,0.79
						c-0.56,4.75-1.09,3.52-1.77,1.68c-0.67-1.85-1.52-4.35-2.5-2.13c0.46-0.69,0.81-5.27,0.64-4.21c-2.35-1.65-5.09,2.15-8.64,5.18
						l0.43-2.46c-1.44-2.19-3.8-1.21-5.43-2.24c-0.36,2.47-1.25,2.11-0.52,5.65c-2.74-6.84-5.15-4.77-7.06-2.36
						c-1.95,2.41-3.56,5.12-6.4-0.33c0.47-0.1,0.82-2.29,0.44-2.24c-1.03,0.91-2.02,1.83-2.99,2.73c0.88,4.07,0.81,2.42,1.99,5.52
						c-0.04,2.5-0.68,4.53-1.49,4.66c1.06-2.95-1.02-6.6-1.98-8.8c0.29,1.24,0.29,2.67,0.53,3.94c-2.56-6.53,0.45,6.1-1.59,4.46
						c-0.17-0.14-0.38-0.37-0.65-0.71l-0.28-2.17c-0.84,1.24-0.97,4.22-2.08,3.86c-0.87-2.23-0.8-2.88-0.58-3.39
						c0.21-0.51,0.53-0.94,0.09-2.86c-0.39,0.16-0.66,0.81-0.81,1.69c-0.16,0.89-0.23,1.95-0.32,2.85
						c-0.19,1.79-0.36,2.99-1.86,1.02c0.09-1.5,0.95-1.9,1.19-3.36c-1.63-2.44-2.48-3.23-3.04-3.49c-0.57-0.26-0.88,0.01-1.67-0.14
						l0.17,0.07c-0.64-0.19-1.29-0.37-1.96-0.51c-0.67-0.15-1.38-0.27-1.95-0.47c0.45,0.35,0.85,0.72,1.34,1.05
						c1.79,6.1,1.38,6.96,0.51,7.46c-0.85,0.48-2,0.54-1.01,4.69c-1.81-7.89-1.85-4.12-4.36-8.96c-1.28-1.02-2.92-2.05-3.44-3.51
						c1.21,4.37-3.36-2.08-1.48,4.26c-0.93-1.48-1.08,0.42-3.06-3.53c-0.52,1.89,1.8,2.49,2.79,4.46c0.55,3.14-1.42,2.17-3.34,1.49
						c-1.9-0.7-3.7-1.12-2.96,3.13c-0.54,4.1,1.78,9.59,0.67,13.32c-0.94-1.12-1.39-2.66-1.66-3.91c-0.26-1.25-0.33-2.21-0.33-2.21
						c-0.53-0.47-0.96-0.77-1.31-0.93c-0.34-0.16-0.58-0.22-0.77-0.11c-0.19,0.1-0.33,0.33-0.44,0.68
						c-0.05,0.17-0.11,0.39-0.15,0.61c-0.02,0.23-0.05,0.47-0.07,0.72c-0.29-1.5-0.88-2.69-1.54-4.55c-0.1,0.27,0.21,1.85,0.36,3.07
						c0.26,1.18,0.22,2.01-0.07,0.76c-0.02-0.25-0.04-0.51-0.06-0.79c-0.02-0.24-0.05-0.49-0.07-0.75
						c-0.03-0.27-0.06-0.56-0.11-0.88c-0.1-0.64-0.25-1.4-0.53-2.32c0.34,1.12,0.57,2.28,0.67,3.47c0.05,0.59,0.07,1.2,0.06,1.8
						l0,0.11l0,0.06l0,0.03l0,0.01l0,0c0.18,4.76-0.25-6.48-0.2-5.32l0,0l-0.04,0.11l-0.08,0.23c-0.04,0.15-0.09,0.31-0.12,0.46
						c-0.08,0.31-0.11,0.61-0.15,0.91c-0.01,0.15-0.03,0.3-0.03,0.44l-0.06,1.52c-0.04,0.55-0.05,0.88-0.09,1.32
						c-0.02,0.33-0.07,0.73-0.1,1.01c-0.08,0.63-0.16,1.07-0.25,1.48c-0.1,0.37,0.02,0.04,0.17-0.9c0.15-0.88,0.31-2.83,0.34-4.94
						c-0.06,3.13-0.26,4.68-0.5,5.78c-0.06,0.26-0.12,0.49-0.18,0.69c-0.03,0.09-0.06,0.18-0.09,0.26l-0.04,0.1
						c-0.04,0.08-0.05,0.08,0.02-0.01c0.06-0.09,0.2-0.25,0.46-0.48c0.26-0.24,0.63-0.55,1.31-1.05c0.2-0.14,0.4-0.28,0.59-0.42
						c0.27-0.18,0.52-0.36,0.77-0.53c0.49-0.33,0.97-0.65,1.44-0.96l-0.15,0.1c-0.11,0.07-0.21,0.13-0.31,0.2
						c-0.43,0.27-0.9,0.54-1.43,0.85c-0.23,0.18-0.44,0.39-0.66,0.57l-0.17,0.13l-0.3,0.22l-0.4,0.3l-0.3,0.24
						c0.29-0.24,0.62-0.48,0.8-0.62c0.18-0.13,0.2-0.14,0.1-0.07c-0.21,0.14-0.83,0.62-1.14,0.9c-0.53,0.47-0.59,0.61-0.64,0.67
						c-0.04,0.06,0,0.01,0.03-0.07c0.03-0.09,0.06-0.17,0.09-0.24c0.03-0.1,0.06-0.19,0.08-0.27c0.04-0.16,0.07-0.26,0.08-0.31
						c-0.08,0.34-0.19,0.66-0.25,0.8c-0.04,0.09-0.06,0.12-0.05,0.11c-0.01,0.01,0,0,0.01-0.01c-0.01,0.01,0.03-0.05,0,0
						c-0.09,0.18-0.15,0.35-0.21,0.51c-0.22,0.62-0.21,1.03-0.1,1.23c0.24,0.4,0.75-0.07,1.15-0.88c0.21-0.41,0.41-0.89,0.64-1.39
						c0.18-0.51,0.24-1.04,0.31-1.49c0.06-0.45,0.08-0.83,0.1-1.07c0.07-0.27,0.2-0.45,0.34-0.41c0.48,2.45,0.88,4.96,1.12,7.45
						c0.22-2.18,0.17-4.35-0.07-6.42c0.88,1.74,2.66,5.57,2.06,6.94c1.29,1.54,1.36,0.76,1.42,0.1c0.06-0.68,0.06-1.28,1.42,0.41
						c0.38,0.54,0.46,0.9,0.45,1.22c0.16-0.87,0.26-1.74,0.36-2.6c0.4,1.55,2.38,4.73,1.14,4.1c1.02,0.73,1.65,0.65,2.03,0.21
						c0.38-0.43,0.47-1.23,0.56-1.96c0.16-1.46,0.19-2.66,1.89-0.35l0.04,0.5c0.87-1.9,0.27-3.14-0.63-4.77
						c-0.91-1.63-2.1-3.66-2.65-7.02c2.62,3.72,5.26,7.42,7.94,11.1l-2.41-4.95c0.38,0.01,1.15,0.06,2.12,2.03
						c-0.81-3.87-1.35-1.98-2.5-5.42c3.82,3.59,2.53-4.14,7.17,3.3c-1.6-3.9-2.88-2.07-2.89-5.41c5.07,7.95,0.85-2.34,4.19,0.74
						c2.01,4.44-0.38,2.84,2.94,5.95c-3.3-7.56,3.16,0.29,3.29-1.54c-1.51-2.9-1.28-3.81-0.62-4.28c0.35-0.25,0.71-0.35,1.04-0.57
						c0.34-0.23,0.65-0.54,0.82-1.21c0.36,1.05,1.34,1.57,2.41,2.2c1.06,0.58,2.22,1.38,2.98,2.47l0.16,1.09
						c-0.05-0.33-0.09-0.63-0.12-0.93c-0.18-1.38-0.21-2.36-0.15-3.08c0.04-0.36,0.09-0.65,0.17-0.9c0.12-0.25,0.26-0.46,0.41-0.63
						c0.59-0.69,1.36-0.86,1.92-1.61c0.54,3.93,0.53,5.5,0.03,7.37l1.31-0.23c-0.01-2.14,0.23-3.31,0.94-4.18l0.42,4.93
						c1.64-0.52,2.54-6.27,5.04-3.28c-0.24-2.29-1.07-5.42-1.63-8.39c-0.56-2.97-0.84-5.78,0.18-7.47c0.4,2.46,1.01,6.68,0.54,7.77
						c0.15-0.34,0.44-2.14,0.97-1.14l-0.39,4.27c1.18,1.71,0.07-3.54,0.9-3.25c0.4,3.53,0.86,2.45,1.06,5.27
						c-0.15,0.36-0.82-1.39-0.94,0.04c0.93,0.53,2.14,2.52,2.71,5.17c-0.27-2.01-0.47-4.76,0.09-5.28c1.55-0.4,0.9,4.2,1.91,5.96
						c0.18-2.48,1.31,0,1.02-5.3c0.46-0.01,0.68,2.47,0.93,3.9c0.66-2.4,3.69-0.81,2.64-6.43l-0.23-0.37
						c0.04-0.11,0.09-0.12,0.13-0.24c-0.01,0,0,0-0.01,0l0.01,0c1.33-2.68,2.85-1.94,4.29-0.79c1.45,1.14,2.83,2.69,4.26,1.61
						l-0.08,1.77c1.74-1.97,3.73-1.01,5.21-4.74c0.51,0.04,0.94,3.32,0.57,5.42c1.37-1.22,1.7-3.22,3.29-0.12
						c-1.56,2.97,0.19,2.78-1.51,2.14c1.52,1.68,1.58,4.54,3.84-0.11c-1.05,4.47,0.64,5.82,1.57,4.56l-0.81-3.37
						c0.96-0.56,1.69-0.08,2.44,0.39l-1.09,5.9c1.26,3.81,3.12,0.91,4.86-1.38c1.74-2.28,3.34-3.98,3.85,2.24
						c1.45-4.03-1.48-3.17-0.04-7.92c1.5,1.01,2,9.74,2.48,9.83c1.68,3.58,3.2-8.4,5.15-5.82c0.02-2.15,0.54-7.84,2.55-9.58
						c1.5,1.02,0.65,9.16-0.6,10.7c-0.4,0.12-0.49-0.57-0.37-1.29c-0.62,0.7-1.42,1.51-1.13,3.89l0.51-2.09
						c0.47,2.27,2.65,2.37,1.63,5.76c1.48-1.84,1.03-3.39,0.31-4.62c1.55,3.36,3.13,0.57,4.88,2.95c-0.14-1.22-0.05-3.74,0.27-3.67
						c2.62,3.1,1.98-3.79,4.22-4.37c0.65,3.41-1.69,7.6,0.83,5.25c0.9,2.39-0.68,5.63-1.46,7.27c2.56-3.74,3.03,3.26,3.94,4.19
						l-1.27,1.52c0.76-0.91,1.23-0.79,1.71-0.69l0.19-4.31c0.45,0.83,0.93,0.94,0.6,2.69c1.09-2.65,0.79-7.08,2.66-10.63
						c0.39,2.27,2.79-1.86,2.03,3.77c-2.08-2.34-0.77,5.65-2.97,6.17c0.51-0.59,0.99-0.48,1.43,0.37c-0.03,0.64-0.29,1.14-0.51,1.43
						c1.36,5.4,2.22-6.11,4.61-5.53c-0.9,3.08-0.59,6.06-0.07,5.46c-0.94-0.24,0.54-5.32,1.9-7.55c1.07,2.74,2.03-1.49,2.79-1.04
						l-0.7-1.33c0.93-3.07,1.63-2.51,2.92-3.27c-0.4,2.46-1.32,1.48-1.15,2.63c2.32-5.26,1.56,6.24,3.98,2.89
						c0.33,2.28-1.15,5.89-0.78,7.47c2.71-3.66,1.07,4.7,3.73,1.77c0.34-4.32,0.02-3.32,2.31-7.1c-1.31,0.74-2.59,1.5-3.87,2.26
						l3.38-5.66c-0.97-0.27-2.63,2.2-3.06,1.36c1.72-3.21,1.4-2.19,1.67-5.78c-0.01,6.59,3.45-3.1,4.13,1.5l-2.31,10.38
						c0.69,2.57,2.12,1.49,3.68,0.16c1.59-1.33,3.28-2.9,4.81-1.26l-0.79-2.03c1.24-4.07,2.25-0.18,3.69-1.69
						c-0.68,3.49-0.14,4.88,0.06,7.15c0.28-2.61,2.86,0.64,4.02-6.38c0.37,1.62,0.79,3.22,1.25,4.83c1.55,1.1,2.72-1.37,3.72-3.95
						c1.02-2.58,1.87-5.26,3.29-4.66c-0.42,1.94-0.32,3.53-0.33,4.99c-0.02,1.46-0.18,2.79-1.31,4.15c1.1,0.06,2.14,0.68,2.11-1.78
						c0.65,2.22,2.9-4.79,5.49-1.9c0.32-0.86,0.34-2.22,0.55-3.4c0.22-1.2,0.55-2.13,1.87-2.56c0.29,0.26,0.48,0.66,0.58,1
						c0.11,0.34,0.13,0.61,0.13,0.61c-0.34-0.81,0.45-1.85,0.64-3c0.15-0.62,0.13-1.23-0.2-1.78c-0.32-0.56-0.97-1.04-1.89-1.6
						c0.68,0.37,1.4,0.6,2.13,0.68c0.7,0.09,1.3,0.09,1.93-0.03c0.17-0.05,0.27-0.03,0.37-0.02l0.29,0.01
						c0.19,0,0.36-0.01,0.53-0.03c0.3-0.05,0.56-0.18,0.8-0.3c0.99-0.49,1.08-1.62,1.13-2.71c0.04-1.11,0-2.27,0.65-3.06
						c0.65-0.8,2.02-1.18,4.56-0.85c-0.12-3.13,0.01-5.56,0.61-7.11c0.82,0.35,1.46,0.43,1.01,0.64c0.47-0.17,0.69-0.37,0.74-0.57
						c0.03-0.05-0.03-0.11,0.05-0.14c0.17-0.01,0.33-0.01,0.48-0.02c0.28-0.02,0.48-0.05,0.62-0.09c0.26-0.08,0.29-0.2,0.09-0.36
						c-0.5-0.24-1.08-0.49-1.65-0.73c-1.14-0.48-2.25-0.94-2.74-1.37c-0.49-0.42-0.33-0.77,0.98-1.2c6.52-0.28,2.32,1.98,4.98,1.57
						c6.01,1.03,6.02-0.09,5.4-1.52c-0.61-1.47-2.04-3.12,1.35-4.19l0.67,0.67c2.04-0.88,0.86-2.25-0.83-3.55
						c-1.69-1.33-3.96-2.55-3.98-4c0,0,1.1,0.04,1.81-0.16c-3.34-0.73-5.87-1.76-7.88-2.84c-0.97-0.55-1.93-1.08-2.55-1.65
						c0.16-0.22,0.31-0.44,0.44-0.65l0.19-0.31l0.09-0.15l-0.11-0.11c-0.29-0.28-0.57-0.54-0.84-0.8c5.78-0.92,3,0.45,8.85-1.87
						c-0.34-0.65-2.71,0.19-5.16,0.87c-2.44,0.69-5.02,1.24-5.88,0.44c3.18-1.8,6.09-4.72,12.47-7.72c0.1,0.84,0.19,1.74,0.27,2.67
						c2.07-1.12,3.11-1.95,3.51-2.58c0.39-0.61,0.15-1.01-0.3-1.29c-0.92-0.56-2.68-0.61-1.97-1.58l3.56-1.5
						c-0.68-1.72-3.17-1.23-5.3-0.8c-2.14,0.44-3.93,0.81-3.21-0.49l-2.49,1.65c-3.66,1.72-2.32,0.82-0.87-0.21
						c1.48-1.04,3.1-2.19,0.72-1.02l7.57-4.91c-0.75,0.24-2.22,0.8-3.45,1.16c-1.25,0.37-2.27,0.5-2.63,0.06
						c2.17-1.11,3.77-1.64,5.16-2.14c1.4-0.48,2.62-0.87,4.07-1.48c0.12-0.31,0.12-0.72-0.31-0.88c-0.44-0.17-1.29-0.1-2.82,0.73
						c0.56-0.07,2.09-0.75,1.02,0.19c-2.48,1.28-4.13,1.98-5.2,2.04c-1.07,0.08-1.61-0.55-2.14-1.59c2.78-2.01,4.18-3.5,4.68-4.73
						c0.51-1.22,0.09-2.13-0.48-2.82c-0.58-0.7-1.26-1.16-1.4-2.02c-0.14-0.86,0.29-2.17,1.97-4.41c-3.78,1.06-5.25,0.07-6.64-1.57
						c-1.38-1.59-2.79-3.81-6.26-3.75c-1.16,2.76-1.94,4.14-2.45,4.84c-0.52,0.7-0.8,0.72-1.16,0.77c-0.72,0.08-1.67,0.19-4.9,5.82
						c-1.66,0.72-2.03,0.57-1.73-0.17c-0.02-2.24-0.26-4.5-0.78-6.73c0.38-3.31,2.69-2.57,3.82-5.14c-1.65-0.4-1.53-1.6-1.13-3.07
						c0.39-1.47,1.1-3.23,0.26-4.67c-0.55,2.04-1.53,3.51-2.56,4.32c-1.04,0.82-2.11,0.94-3.05,0.27c0.54,1.64,0.95,3.32,1.25,5.01
						c-1.92,1.61-2.84,1.82-3.42,1.37c-0.57-0.46-0.76-1.6-1-2.73c-0.24-1.13-0.53-2.25-1.23-2.69c-0.7-0.43-1.83-0.19-3.54,1.33
						c0.82-1.16,1.7-2.38,2.61-3.59c-0.9,0.58-2.05,0.93-3.29,1.14c-0.63,0.13-1.29,0.25-1.95,0.28l-0.45,0.05
						c-0.16,0.01-0.14,0.06-0.22,0.09l-0.37,0.23c-0.99,0.7-2.45,2.14-3.92,6.36c-0.02-1.3,0.23-4.31,0.97-4.98
						c-1.43-0.94-3.99,0.94-6.56,2.34c-2.59,1.4-5.01,2.38-6.71-0.53l0.67-2.63c-1.08,0.66-2.12,4.88-3.09,2.09
						c0.13-1.11,0.58-2.65,0.13-2.84c-0.61,0.89-2.76,4.56-3.88,3c0.36-1,0.73-2.01,1.12-3.01c-2.45-1.82-4.39,0.05-5.91,2.63
						c-1.56,2.58-2.79,5.85-4.39,6.91c-0.63-7.91-4.27-10.15-6.01-11.23l-0.07-1.12c-4.89-0.4-6.71,7.51-9.94,11.05
						c-1.67-4.12-3.5-4.81-5.44-5.07c-1.93-0.25-4.02-0.07-5.77-2.4c0.57,1.41,0.23,6.17-0.36,6.99c-0.85-1.57-2.07,5.58-2.15-1.69
						l0.29,0.13c-0.82-7.11-2.3-5.18-3.55-5.36l-0.17,9.51c-1.73-6.9-3.8-5.66-5.88-4.3c-2.04,1.37-4.05,2.87-4.48-3.37
						c-0.97,2.31-1.99,2.2-3.06,4.49l0.5-5.07c-2.28-1.51-3.43-2.28-6.98-1.37l1.03-3.57c-0.97-0.25-1.92,3.36-2.82,7.05
						c-0.9,3.69-1.75,7.47-2.65,7.56l-0.08-7.63c-1.81-0.05-3.64-1.77-5.68-2.58c-2.01-0.83-4.26-0.68-6.04,2.87
						c0-1.12-0.01-3.32,0.65-3.66c-1.01-0.07-2.95-1.2-4.49-1.02c-1.49,0.2-2.49,1.69-1.54,6.84C74.05,4.04,73.06,4,72.01,5.21
						c-1.07,1.2-2.05,3.68-2.74,5.3l-0.5-5c-0.53,6.58-0.29,8.31-2.01,10.42c-0.59-0.56-1.12-3.88-0.26-2.73
						c-2.07-2.3-0.42,4.9-2.78,2.61l0.13-3.28c-1.68-0.09-1.24,1.58-1.43,5.41c-0.64,2.17-3.17-0.72-4.16-5.15
						c0.27,2.76,0.08,6.54-1.03,5.4c-0.4-1.67-0.25-2.77-0.18-3.31c-1.52-1.47-2.13,0.08-2.77,1.47c-0.59,1.36-1.2,2.54-2.29,0.18
						c-0.23-1.65-0.43-2.46-0.61-2.94c1.77-0.08,3.33-0.05,3.25,0.33c-0.34-2.29-0.92-3.57-1.36-5.1c-0.43-1.54-0.76-3.3-0.67-6.55
						c-0.51,3.6-1.55,11.37-3.11,9.32c-0.1-0.44-0.2-0.87-0.31-1.58l0.08-0.53c-0.33-0.44-0.54,0.01-0.73,0.81
						c-0.46-0.72-0.74-1.27-1.09-1.32c-0.35-3.81-1.41-1.99-1.96-2.18c0.13,5.06-0.73,4.25,0.09,8.42c-0.11-0.35,0.12-0.6,0.55-0.82
						c0.09-0.15,0.21-0.23,0.26-0.53c-0.01,0.13-0.02,0.28-0.03,0.45c0.42-0.16,0.99-0.31,1.62-0.42c-0.35,2.58-0.91,4.79-1.74,2
						c-0.26,3.26-0.65,6.61-0.9,8.18c-1.15-7.04-2.65-10.92-2.59-15.29c-0.96,1.37-2.08,1.74-3.24,2.91
						c-1.17,1.16-2.44,3.13-3.99,7.66c-0.86,1.09-0.18-2.81-0.09-4.32c0.51-0.86,0.87-0.65,1.29-1.96c-1.58,2.2-3.34,0.24-5.38,6.54
						c-0.37-1.66,0.3-3.06,0.7-4c0.41-0.95,0.61-1.4-0.47-1.17l0.83-1.87c-0.05-1.4-0.2-2.21-0.71-2.68
						c-0.49-0.46-1.25-0.55-2.19-0.36c-1.88,0.36-4.41,1.84-6.66,3.56c-1.24,0.84-2.36,1.76-3.37,2.57
						c-1.02,0.82-1.96,1.52-3.05,2.03c-1.11,0.54-2.32,0.79-4.32,1.33c-1,0.29-2.27,0.74-3.74,1.64c-1.46,0.89-2.95,2.25-4.22,3.51
						c1.34-1.45,2.28-2.2,3.41-1.94c-1.32,1.45-2.08,3.14-2.51,4.17c-0.22,0.53-0.38,0.93-0.5,1.19c-0.13,0.3-0.24,0.6-0.34,0.9
						c-0.38,1.22-0.48,2.51-0.39,3.78c0.19,2.55,1.19,4.98,2.3,7.16c1.12,2.2,2.33,4.16,3.07,6.32c0.25,0.84,0.16,1.36-0.11,2.07
						c-0.29,0.69-0.83,1.43-1.75,2.21c-1.38,1.44,2.8,0.16,6.44,0.08c-1.79,0.54-3.59,1.06-5.4,1.55c2.27-0.19,4.59-0.25,6.92-0.16
						c2.05,0.44,0.66,1.46-1.49,2.26c-1.77,0.68-4.02,1.22-5.13,1.66c-1.12,0.46-1.08,0.8,1.49,1.63c1.28,0.03,2.56,0.04,3.86,0.03
						c-0.49,0.39-0.18,1.09-0.28,1.66c-0.11,0.56-0.6,0.92-2.65,0.44c0.64,0.19,3.65,1.04,1.66,0.96l-2.79-0.61
						c0.7,0.47,1.36,1.02,2.07,1.52c0.29,0.46,0.59,0.9,0.9,1.33c0.32,0.42,0.66,0.79,1,1.18c-1.26,1.15-3.97,0.61-6.59,0.19
						c-2.58-0.4-5.14-0.57-5.5,2.1c0.52,1.07,2.72,2.59,5.15,3.54c2.44,0.96,4.97,1.46,5.87,1.21c-0.04-0.58,1.28-1.36,4.2-1.25
						c0.63,0.42,1.35,0.78,2.03,1.14c1.92,0.08,4.15,0.17,6.16,0.25c1.97,0.08,3.88,0.15,5.73,0.11c3.71-0.07,6.89-0.25,9.62-0.43
						c-1.72-0.28-3.45-0.69-5.13-1.21c1.33,0.09,2.66,0.21,3.99,0.35c0.09,0.18,0.17,0.36,0.29,0.53c1.84,0.06,1.96,0.02,1.31-0.16
						c-0.65-0.18-2.05-0.49-3.18-0.82c2.13,0.32,3.61,0.53,4.42,0.61c-1.29-0.33-2.58-0.73-3.86-1.12
						c-1.29-0.31-2.57-0.69-3.83-1.14c0.4,0.1,0.83,0.12,1.2,0.27c0.19,0.07,0.38,0.15,0.56,0.24c0.18,0.08,0.38,0.12,0.57,0.19
						c0.7,0.2,1.59,0.46,2.19,0.64c0.73,0.21,0.8,0.23,1.93,0.56c0.11,0.04,0.25,0.08,0.42,0.14c0.06,0.02,0.13,0.04,0.2,0.07
						c0.03,0.01,0.06,0.04,0.1,0.02c0.05-0.04,0.1-0.09,0.16-0.13c0.2-0.16,0.47-0.52,0.6-0.51c0.16-0.07,0.32-0.16,0.48-0.27
						c-1.53-1.23-3.46-1.29-5.17-1.5c-1.71-0.2-3.21-0.52-4.04-1.84c4.2-0.44,7.18,0.46,4.5-1.8c2.22,0.14,3.51,0.73,4.2,1.63
						c-1.01-1.05-0.98-2.13-1.23-3.13c-0.26-1-0.8-1.92-2.97-2.49c1.26-0.26,1.9-0.73,2.23-1.26c0.32-0.54,0.36-1.13,0.49-1.67
						c0.2-1.08,0.77-1.96,4.74-1.96c-1.49-0.42-4.39-1.82-5.79-2.95c-0.41-0.33-0.72-0.65-0.82-0.94c1.22,0.19,2.12,0.28,2.82,0.25
						c0.69-0.03,1.12-0.16,1.44-0.39c0.61-0.45,0.62-1.23,0.61-2.07c-0.03-1.68-0.26-3.6,4.86-4.25c-4.49-0.27-5.97-1.77-7.24-3.52
						c-1.25-1.73-2.35-3.79-5.44-4.38c0.72-0.11,2.21-0.3,1.96,0.15c-0.35-2.04,1.66-3.66,2.35-5.63c-3.26,1.43-5.6,1.75-7.43,2.21
						c-1.7,0.69-3.17,1.08-5.27,1.7c3-1.63,5.01-2.21,6.9-2.96c0.95-0.36,1.88-0.75,2.95-1.21c0.38-0.17,0.66-0.29,0.87-0.39
						c0.01,0,0,0-0.03,0.01c-0.04,0.02-0.09,0.04-0.2,0.09c-0.73,0.32-1.43,0.58-2.03,0.79c-1.23,0.44-2.39,0.71-4.63,1.53
						c1.94-0.82,2.44-0.96,3.12-1.19c0.49-0.15,0.88-0.27,1.39-0.42c0.17-0.05,0.35-0.1,0.55-0.15l0.15-0.04l-0.01,0l-0.02,0
						c-0.02,0.01-0.04,0.01-0.07,0.02c-0.55,0.14-0.97,0.25-1.51,0.38c-0.62,0.15-0.71,0.15-0.68,0.13
						c0.05-0.06,0.51-0.13-2.17,0.26c1.05-0.25,2.11-0.4,3.04-0.53c0.12-0.02,0.24-0.03,0.34-0.04c0.11-0.01,0.02,0,0.04-0.01
						l-0.02,0l-0.03,0c-0.03,0-0.05,0-0.22,0.02C35.4,31.15,35.65,31.13,35.67,31.13z M52.8,42.53c0,0.05,0.01,0.08,0.01,0.1
						c-0.43,0.16-0.79,0.29-1.02,0.37C52,42.91,52.3,42.79,52.8,42.53z M56.9,41.97c-0.52-0.13-1.12-0.08-1.78,0.03
						c-0.35-1.72-0.41-3.52,0-3.48C55.04,39.7,56.1,40.58,56.9,41.97z M46.65,7.73C47,7,47.17,7.99,47.28,9.02
						c-0.18,0.1-0.39,0.28-0.67,0.64c-0.01,0.16-0.02,0.45-0.03,0.62C46.59,9.31,46.6,8.41,46.65,7.73z"/>
					<path class="st0" d="M46.12,14.39c-0.06,0.11-0.09,0.33-0.17,0.37c0.1,0.44,0.19,0.82,0.29,1.13c0.04-0.54,0.08-1.1,0.11-1.59
						C46.27,14.34,46.19,14.36,46.12,14.39z"/>
					<path class="st0" d="M88.92,69.71L89,69.82c-0.06-0.2-0.12-0.4-0.17-0.72C88.88,69.35,88.89,69.51,88.92,69.71z"/>
					<polygon class="st0" points="103.04,49.05 103.12,47.78 102.68,48.87 					"/>
					<path class="st0" d="M67.51,54.57c-0.1-0.43-0.24-0.88-0.44-1.24C67.13,53.65,67.3,54.09,67.51,54.57z"/>
					<path class="st0" d="M56.45,56.27c-0.75-0.34-1.5-0.64-2.29-0.93C55.29,55.93,55.94,56.17,56.45,56.27z"/>
					<path class="st0" d="M48.27,57.63c0.35,0.82,0.65,1.42,0.93,1.96c0.01,0.01,0.02,0.01,0.03,0.03L48.27,57.63z"/>
					<path class="st0" d="M161.91,51.49c0.1-0.01,0.2-0.05,0.3-0.17C163.01,50.47,162.52,50.77,161.91,51.49z"/>
					<path class="st0" d="M128.35,57.81c0.46-0.86,0.92-1.71,1.35-2.22C129.19,55.12,128.77,54.96,128.35,57.81z"/>
					<path class="st0" d="M191.09,65.6c0-0.01,0,0,0-0.02c0.06,0.35,0.1,0.66,0.16,1.01L191.09,65.6z"/>
					<path class="st0" d="M131.15,55.88c-0.42-1.08-0.92-0.93-1.45-0.3C130.11,55.98,130.58,56.57,131.15,55.88z"/>
					<path class="st0" d="M31.3,76.86c0.13-0.13,0.31-0.29,0.58-0.5c0.03-0.03,0.05-0.04,0.1-0.08
						C31.66,76.52,31.44,76.73,31.3,76.86z"/>
					<path class="st0" d="M31.97,76.27c0.32-0.25,0.79-0.61,1.62-1.18c-0.58,0.4-0.94,0.66-1.17,0.83
						C32.22,76.08,32.07,76.2,31.97,76.27z"/>
					<path class="st0" d="M35.36,73.89l0.22-0.13l0.11-0.07l0.03-0.02l0.01-0.01l0.01,0l0,0l-1.36,0.91l-0.8,0.54
						c0.7-0.47,1.42-0.95,2.16-1.44l-0.06,0.04l-0.12,0.08C35.49,73.82,35.42,73.86,35.36,73.89z"/>
					<path class="st0" d="M32.24,66.34l-0.64-1.72C31.72,64.98,31.93,65.53,32.24,66.34z"/>
					<path class="st0" d="M33.68,65.12c-0.59-0.2-2.66-3.08-2.6-1.87l0.52,1.36C30.62,62.1,34.57,68.1,33.68,65.12z"/>
					<path class="st0" d="M53.78,80.01l-2.69-0.16c1.31,1.51,3.07,3.53,2.39,4.45C58.87,87.95,50.82,80.79,53.78,80.01z"/>
					<path class="st0" d="M61.02,79.18c-0.54,1.34,1.38,2.48,1.86,3.48C62.62,80.76,62.57,80.27,61.02,79.18z"/>
					<path class="st0" d="M103.41,74.21l-0.47,4.58C103.85,78.2,103.09,77.01,103.41,74.21z"/>
					<polygon class="st0" points="115.21,51.46 114.61,48.51 113.7,52.65 					"/>
					<polygon class="st0" points="116.84,84.69 116.38,85.3 118.06,83.82 					"/>
					<path class="st0" d="M213.84,78.28c-1.8-0.88-3.58-1.77-5.35-2.68C209.17,77,214.81,80.9,213.84,78.28z"/>
					<path class="st0" d="M219.09,28.15c3.32-2.24,5.36-4.13,2.49-2.68C221.01,26.23,218.35,28.29,219.09,28.15z"/>
					<polygon class="st0" points="114.42,4.01 115.06,2.12 113.88,3.69 					"/>
				</g>
			</g>
		</g>
	</g>
</g>
</svg>
