<?xml version="1.0" encoding="utf-8"?>
<!-- Generator: Adobe Illustrator 25.1.0, SVG Export Plug-In . SVG Version: 6.00 Build 0)  -->
<svg version="1.1" id="Слой_1" xmlns="http://www.w3.org/2000/svg" xmlns:xlink="http://www.w3.org/1999/xlink" x="0px" y="0px"
	 viewBox="0 0 685 285" style="enable-background:new 0 0 685 285;" xml:space="preserve">
<style type="text/css">
	.st0{fill:#A8A8A8;}
</style>
<g>
	<g>
		<g>
			<g>
				<g>
					<path class="st0" d="M672.95,116.75c0.38-1.03,0.19-3.37-0.85-2.93l-0.77,3.96L672.95,116.75z"/>
					<path class="st0" d="M666.13,109.24c-1.24,1.9-2.73,5.25-2.04,8.91c1.3-3.79,1.56-2.19,2.94-6.7c1.03-0.44,1.77,1.31,1.57,2.77
						c0.38-1.01,1.59,0.91,2.18-1.57c-1.3-3.1-2.97-3.26-4.79-0.77C665.64,111,666.03,109.97,666.13,109.24z"/>
					<path class="st0" d="M568.22,92.07l0.54,0.58C568.64,92.36,568.45,92.18,568.22,92.07z"/>
					<path class="st0" d="M508.39,77.64c0.48,0,0.75-0.34,0.85-0.68C508.76,77.12,508.36,77.28,508.39,77.64z"/>
					<path class="st0" d="M499.03,71.12c0.19,0.17,0.37,0.27,0.55,0.4C499.43,71.11,499.24,70.86,499.03,71.12z"/>
					<path class="st0" d="M568.22,92.07l-1.39-1.52C566.49,91.8,567.49,91.64,568.22,92.07z"/>
					<path class="st0" d="M651.89,118.3c0.36-0.18,0.67-0.53,0.96-0.99c-0.3,0.15-0.58,0.28-0.88,0.37
						C651.95,117.88,651.93,118.04,651.89,118.3z"/>
					<path class="st0" d="M595.38,93.33l0.49,0.07c0.21-0.42,0.43-0.95,0.65-1.54L595.38,93.33z"/>
					<path class="st0" d="M615.88,95.53c-0.44-0.21-1.01,3.12-1.37,4.56c0.43-1.34,0.85-1.96,1.29-2.16
						C615.89,97.29,615.92,96.52,615.88,95.53z"/>
					<path class="st0" d="M647.95,104.41l0.61-0.44C648.4,104.11,648.14,104.23,647.95,104.41z"/>
					<path class="st0" d="M580.89,90.28c0.05-0.5,0.05-0.95,0.02-1.22C580.84,89.48,580.84,89.88,580.89,90.28z"/>
					<path class="st0" d="M23.74,32.63c0.12-0.21,0.18-0.35,0.28-0.53C23.78,32.36,23.64,32.56,23.74,32.63z"/>
					<path class="st0" d="M8.05,11.13l0.35-0.15c0.08-0.63,0.16-1.26,0.2-1.88L8.05,11.13z"/>
					<path class="st0" d="M481.09,62.77c0.03,0.05,0.04,0.05,0.07,0.08C481.74,62.58,481.45,62.59,481.09,62.77z"/>
					<path class="st0" d="M302.23,41.62c2.1,2.96-3.28,3.97-0.14,7.23C301.77,47.52,304.83,43.56,302.23,41.62z"/>
					<path class="st0" d="M651.37,117.83c-0.29,0.02-0.58,0.04-0.87-0.01C650.88,117.95,651.15,117.95,651.37,117.83z"/>
					<path class="st0" d="M302.09,48.85l0,0.03l0.32,0.31C302.28,49.05,302.21,48.97,302.09,48.85z"/>
					<path class="st0" d="M436.86,55.59c-0.02,0.6,0.07,1.08,0.17,1.54C437.07,56.79,437.05,56.35,436.86,55.59z"/>
					<path class="st0" d="M468.53,67.04l-0.71-0.61C468.08,66.8,468.31,66.95,468.53,67.04z"/>
					<path class="st0" d="M418.9,57.05c-0.4-0.33-0.47-0.81-1.15-0.48c0.03,0.18,0.06,0.31,0.11,0.44
						C418.17,56.59,418.49,56.43,418.9,57.05z"/>
					<path class="st0" d="M401.07,54.05c0.05,0.27,0.15,0.48,0.22,0.72c0.19-0.04,0.4-0.06,0.6-0.09L401.07,54.05z"/>
					<path class="st0" d="M55.07,66.94c0.51-0.93,1.2-1.76,1.93-2.53C55.22,66.06,52.77,64.03,55.07,66.94z"/>
					<path class="st0" d="M651.98,116.41c-0.15,0.85-0.33,1.26-0.62,1.42c0.21-0.03,0.42-0.08,0.62-0.15
						C652.06,117.18,652.09,116.71,651.98,116.41z"/>
					<path class="st0" d="M413.48,83.12l-2.66-0.97C411.53,82.6,412.5,82.95,413.48,83.12z"/>
					<path class="st0" d="M188.64,90.49l-0.51,0.58C188.39,91.07,188.59,90.91,188.64,90.49z"/>
					<path class="st0" d="M402.57,81.23c-0.3-1.26-0.7-2.03-1.17-2.57c-0.16,0.24-0.32,0.43-0.46,0.8L402.57,81.23z"/>
					<path class="st0" d="M57.02,64.39C57.01,64.4,57,64.41,57,64.41S57.01,64.4,57.02,64.39z"/>
					<path class="st0" d="M40.12,52.57c1.18,2.02,4.26-1.38,6.69-2.31c2.67,1.91-2.03,2.92-3.43,4.97c2,1.02,6.28,0.25,6.94,1.66
						c-0.56,0.48-0.64,0.87-1.6,1.05c2.08,0.02,2.97,1.41,4.05,2.82c1.06,1.39,2.35,2.84,4.95,2.72c-0.21,0.39-0.45,0.69-0.7,0.93
						c1.56-1.64,3.39-2.97,4.76-3.81c0.81,1.03,3.64,0.3,1.6,2.4c-0.41-0.69-1.39-0.06-2.34,0.16l1.84,0.37
						c-2.59,3.51-2.3-0.68-4.79,1.1c1.36,0.75,3.23,1.28,4.85,1.8c1.6,0.55,2.86,1.17,3.1,2.37c-2.75,3.07-4.29-3-5.19,1.58
						c-0.34-1.23-0.68-2.43-0.97-3.63c-1.74,2.98-1.95,2.52-2.28,2.04c-0.28-0.47-0.66-0.97-2.63,2.13
						c1.08,2.25,2.38,2.99,3.64,3.68c1.24,0.73,2.57,1.29,3.82,3.43c2.35-0.84,2.14-2.61,4.45-3.48c0.92,0.2,1.53,0.53,1.96,0.91
						c0.44,0.37,0.66,0.84,0.75,1.37c0.17,1.06-0.2,2.37-0.57,3.64c-0.74,2.5-1.43,4.94,2.25,4.25c1.34-0.7,2.86-2.02,4.16-2.66
						c0.65-0.32,1.25-0.47,1.75-0.27c0.5,0.2,0.91,0.72,1.23,1.72c-1.16,1.08-2.35,2.15-3.54,3.21c1.8,1.42,3.24,0.36,4.49-0.42
						c0.63-0.39,1.21-0.71,1.77-0.62c0.56,0.09,1.09,0.61,1.72,1.8c-1.62,1.25-3.74-0.45-3.45,0.38c0.17,1.18,0.47,1.71,0.84,1.85
						c0.37,0.12,0.81-0.15,1.28-0.53c0.94-0.75,2-1.96,2.99-1.43l-1.49,3.83c2.26,0.9,4.94,1.07,7.58,1.24
						c1.31,0.12,2.67,0.08,3.98,0.16c1.31,0.05,2.58,0.22,3.83,0.4c-0.63,1.08-1.88,2.03-1.12,3.57c1.72-0.01,3.37,0.25,5,0.72
						c1.64,0.39,3.25,0.97,4.84,1.69c3.19,1.34,6.34,3.16,9.34,4.69c0.94-1.07,1.85-2.14,2.74-3.22c0.53,0.1,0.87,1.66,0.21,2.3
						c2.3,1.5,0.32-2.22,1.58-3.52c1.34-0.15,1.63,2.14,0.69,3.14c1.12-0.68,2.44-1.34,3.84-1.97c1.4-0.66,2.89-1.22,4.36-1.58
						c1.47-0.35,2.93-0.61,4.31-0.48c0.69,0.06,1.36,0.2,2,0.44c0.64,0.22,1.25,0.53,1.82,0.96l-0.78,1.11
						c1.75,0.58,2.59-1.29,3.35-2.93c0.78-1.63,1.46-3.06,3.13-1.61l-0.5,0.69c3.62,0.37,7.25-0.61,10.67-1.19
						c3.44-0.56,6.68-0.76,9.91,1.24c-0.08-2.59,1.7-2.44,3.39-2.53c1.68-0.08,3.2-0.44,2.51-3.91c4.68,2.39,3.93,3.89,9.92,4.64
						c1.5-0.11,0.84-4.86,2.34-6.08l1.12,3.53l1.19-4.42l2.54,3.84l1.32-1.4c-0.71-0.01-1.85-1.16-2.07-2.21
						c2-2.37,6.81,0.55,7.46,2.34l4.84-4.84c0.33,1.46-0.48,2.25-0.96,3.4c1.93-4.59,1.76,3.53,3.51-0.67
						c-0.63-0.68-0.47-2.16-0.64-2.9c2.1,1.67,5.26,0.69,7.31-0.95l0.32,2.58c4.37-0.69,8.43-3.92,13.05-5.15
						c-1.98-0.67-2.82-5.03-1.54-5.83l1.6,3.61c0.24-2.58-1.83-1.01-0.8-4.38c1.89-0.01,2.35,4,1.69,5.47l1.76-1.84
						c0.43,1.1,0.09,1.82,0.35,3.29c0.25-2.57,4.59,2.9,4.79-1.5l0.4,1.1c2.3-0.56,3.9-1.3,5.39-2.04c1.49-0.75,2.91-1.36,4.79-1.86
						c-0.62-3.32,1.04-2.88,1.65-5.79c1.53,0.24,3.21,0.86,4.92,1.29c0.85,0.22,1.71,0.38,2.57,0.46c0.86,0.1,1.73,0.08,2.57-0.12
						c2.15-2.03,0.24-2.93,1.02-5.07c0.68,3,4.07,2.19,2.62,4.65c2.02-0.56,3.32-0.92,4.72-1.54c0.7-0.31,1.43-0.7,2.29-1.19
						c0.87-0.47,1.87-1.05,3.12-1.82c-0.73-1.19-1.45-1.66-1.24-2.74c0.91-0.61,2.36,1.04,2.39,2.52l-0.22,0.34
						c2.72-2.61,6.43-0.78,9.87,0.89c3.47,1.78,6.67,3.35,8.83-0.01l-0.24,0.33l4.74-3.68c2.31,0.45-1.25,2.36,0.53,4.2
						c2.53-2.64,4.66-2.53,6.66-2.19c2,0.34,3.88,0.89,6.04-0.89c1.78,4.49,4.75,4.37,7.9,3.8c3.15-0.54,6.48-1.59,8.71,1.43
						l-0.22-2.14c1.24-2.05,1.41,1.27,2.26,1.79c-0.08-1.66-1.23-1.96-0.47-3.1c5.08-1.09,10.28-0.23,15.43,1.52
						c2.58,0.84,5.14,1.81,7.68,2.74c2.55,0.95,5.08,1.93,7.6,2.63c3.69,0.91,3.18-10.81,7.47-5.3l-1.75,3.82
						c4.04-2.01,7.96-1.46,11.82-0.9c3.87,0.54,7.69,1.33,11.7-0.17c-0.57,0.85-0.74,2.02-1.47,1.91c1.19,3.07,5.8,0.93,6.17-1.39
						c1.13,0.42-0.03,2.14,0.51,3.42c1.33,1.89,4.51-3.03,4.93-0.07c0.07,0.48-0.58,0.86-0.91,1.03c1.24-1.22,4.74,1.1,4.27-2.34
						c2.56,2.01,5.61-0.64,7.53,1.68c2.07-3.41,4.5,2.59,5.85-2.51c-1.11,5.32,4.17,5.16,6.4,2.96c-0.88,1.51,1.24,1.94,0.15,4.06
						c2.03,0.29,4.07-0.35,4.22-3.16c2.54,7.08,8.48-3.73,9.02,4.84c6.56-1.7,12.53-2.51,18.21-2.66c-1.29,5.25-6.1-0.68-7,4.94
						c5.56-1.18,9.48-5.08,14.32-2.74c1.17,1-1.23,2.14-1.87,2.95c5.6-1.12,9.83,2.57,15.03,0.68c-0.12,0.49-0.73,0.92-1.28,1.23
						c0.94,0.02,1.93,1.22,2.35-1.2l-1.02,0.46c-0.69-3.8,5.16-6.52,5.72-8.33c-3.03,6.56,4.16,2.71-0.17,10.89
						c0.69-0.33,1.69-1.3,1.9-2.94c0.78,0.66,0.86,1.66-0.44,3.3c3.52-0.6,2.93-3.41,5.85-2.71c-0.26,1.16-0.95,1.48-1.56,2.78
						c1.98-1.95,3.97-3.89,6.23-2.36c-0.3,0.67-0.21,1.64-0.95,1.47c4.33,0.58,8.59-4.45,12.79-1.23c-2.49,4.75,1.23,2.01,0.52,6.44
						l2.8-0.75l-0.54-2.35c2.19,0.56,4.83-2.21,6.42-0.36l-2.03,1.45l4.32,0.07l-1.98-2.17c2.72-1.77,0.97-5.59,3.64-3.73
						c-0.69,0.31,2.19,0.53,2.78,3.36c0,0-0.01,0-0.01,0.01c1.39-1.16,2.83-2.38,4.23-0.94c0.12,1.49-1.39,4.77-1.31,5.76
						c1.87-3.43,5.4,0.09,7.6-3.52c-0.65,0.82-1.17,3.11-1.12,3.61l1.54-2.78c0.82,1.17,0.87,1.66,0.32,3.46
						c2.97,1.2,0.2-5.77,3.35-2.59c-0.34,0.18-0.29,0.65-0.99,0.98c3.41,2.04,7.5-0.39,10.57,1.77c0.09,4.62-3.18,0.47-2.81,4.43
						c5.06,0.2,11.19-3.19,15.72-1.25l-0.79-0.66c1.89-6.11,2.92,3.77,5.89,1.3c-0.68,0.35-1.44,3.32-1.15,2.65
						c1.53,0.82,3.26,0.76,5.28,0.37c2.02-0.41,4.32-1.16,6.96-1.69l-0.91,1.5c1.66,1.79,4.9,1.75,6.85,2.87
						c0.9-1.49,2.04-1.02,1.73-3.49c2.39,5.13,5.69,4.41,8.89,3.49c3.21-0.92,6.32-2.05,8.58,2.19c-0.69-0.08-1.85,1.17-1.31,1.25
						l5.1-0.75c0.03-2.8-0.39-1.76-1.08-4.04c0.86-1.53,2.41-2.59,3.61-2.41c-2.44,1.49-0.64,4.41,0.09,6.08
						c-0.03-0.86,0.42-1.74,0.47-2.61c1.83,5.26,1.23-5.46,4.2-1.65l-0.39,1.41c1.4-0.53,2.86-2.31,4.19-1.71
						c0.15,3.25-1.58,1.3-2.03,3.91c2.01,0.07,4.69-5.52,6.04-2.12c-0.95,0.78-2.15,0.64-3.1,1.41c1.44,3.98,1.8,3.07,3.17,3.85
						l-0.13-0.1l3.14,2.13l-0.73-1.12c1.76-3.99,3.05-4.21,4.41-4.05c1.36,0.13,2.8,0.62,4.76-1.92c-3.81,4.81-0.87,2.92-1.52,6.51
						c0.74,1.09,1.92,2.36,1.44,3.33c1.9-2.75,2.42,2.58,5.1-1.44c-0.02,1.17,1.69,0.29,1.04,3.18c2.16-0.7-0.29-2.08,0.03-3.52
						c3.53-3.6,7.06,5.51,12.11,0.43c4.12-1.95,5.12-5.76,8.86-7.55c1.11,1.93-1.27,4.2-1.27,4.2c1.88,1.83,3.41,1.59,5.35,0.35
						c-0.43,1-0.09,1.88,0.42,3.22c1.53-0.22,1.22-4.2,3.12-2.37c-0.4,1.28-0.94,3.35-1.73,4.62c1.84-0.98,3.7-3.07,5.58-4.03
						c0.41,2.06-1.23,3.03-1.94,4.33c2.12-0.76,5.47-1.69,6.2-4.88l-1.29-1.18c0.76-0.14,0.3,2.78-0.28,3.36
						c-1.87,2.49-2.53-1.18-2.58-2.35l1.33-0.72c-1.08-6.85-5.26,0.85-7.9,0.33l1.34-4.93l-2.9,3.99c-0.5-1.33-0.73-4.13,0.59-4.81
						c-1.72-2.56-1.75,1.68-3.19-1.15c-0.15-0.44-0.06-0.67,0.12-0.86l-1.91,1.39c0.42-1.03-0.07-3.53,0.99-2.75
						c-3.04-3.01-5.5,3.35-6.45-0.5l0.29-0.28c-4.64,1.32-0.71,3.62-4.46,7.63l-1.53-9.19l-0.76,3.62
						c-0.46-0.17-1.35-0.52-1.05-1.96c-1.96,2.36,0.15,1.61-1.07,3.89c-1.94-3.46-6.35,0.92-6.27-4.92
						c-1.09,2.69,1.92,2.37-0.67,4.04c-0.03-6.32-2.88,0.77-4.62-2.31c0.99-3.15,2.72-1.24,1-4.34c-1.84,5.31-3.83-1.59-5.65-0.77
						c-0.6,4.32-3.95,1.32-7.01,2.39c0.37-1.44-5.11-3.05-7.55-5.01l0.18-0.71c-1.14,4.29-3.78,3.05-5.92,3.65
						c0.47-2.6,0.98-3.57,2.24-4.58l-1.88-0.26c-0.65,1.33-1.35,1.98-2.65,2.29l0.97-3.18c-2.52-0.2-5.64,3.1-8.51,0.37
						c-0.68,3,1.21,8.88-2.56,10.33c0.14-1.66,0.48-4.49,1.48-5.01c-0.33,0.16-1.27,1.19-1.75,0.39l1.82-2.53
						c-1.27-1.46-1.15,2.18-2.28,1.72c0.41-2.33-0.59-1.81-0.12-3.64c0.34-0.18,0.86,1.14,1.46,0.3c-1.25-0.64-2.62-2.3-2.85-4.15
						c-0.11,1.35-0.53,3.15-1.55,3.29c-2.53-0.25-0.38-2.95-1.63-4.4c-0.88,1.52-2.18-0.43-2.84,3.05c-0.73-0.14-0.58-1.8-0.69-2.79
						c-1.56,1.3-6.11-0.66-5.32,3.31l0.29,0.31c-0.08,0.06-0.15,0.05-0.24,0.11c0.01,0,0,0,0.01,0l-0.01,0
						c-4.89,2.67-8.46-3.56-12.94-2.92l0.23-1.16c-2.77,0.84-5.74-0.31-8.03,1.84c-0.74-0.15-1.33-2.47-0.74-3.79
						c-2.09,0.5-2.57,1.75-4.95-0.73c2.34-1.63-0.3-1.93,2.27-1.08c-2.29-1.51-2.46-3.49-5.79-0.87c1.52-2.79-1.1-4.13-2.46-3.48
						l1.3,2.49c-1.42,0.16-2.53-0.34-3.66-0.84l1.45-3.78c-4.07-5.8-10.88,6.14-13.06-2.62c-1.93,2.44,2.35,2.51,0.47,5.45
						c-2.23-1.03-3.46-7.14-4.19-7.32c-2.74-2.86-4.22,5.05-7.26,2.84c0.13,1.48-0.27,5.29-3.07,6.05
						c-2.24-1.03-1.61-6.46,0.11-7.26c0.59,0,0.76,0.5,0.64,0.97c0.87-0.34,1.99-0.72,1.39-2.43l-0.61,1.33
						c-0.85-1.67-4.11-2.22-2.85-4.34c-2.06,0.94-1.26,2.12-0.1,3.13c-2.56-2.67-4.69-1.09-7.49-3.12c0.32,0.87,0.42,2.61-0.07,2.49
						c-4.17-2.72-2.58,2.2-5.79,2.13c-1.28-2.5,1.74-4.93-1.75-3.83c-1.58-1.85,0.41-3.78,1.41-4.75c-3.41,2.06-4.9-2.92-6.41-3.76
						l1.74-0.8c-1.04,0.47-1.76,0.29-2.51,0.12l0.24,2.97c-0.77-0.68-1.51-0.85-1.24-2c-1.3,1.63-0.32,4.78-2.65,6.88
						c-0.86-1.67-3.88,0.74-3.48-3.04c3.4,2.06,0.4-3.8,3.64-3.72c-0.7,0.31-1.42,0.13-2.19-0.55c-0.04-0.44,0.29-0.74,0.58-0.9
						c-2.8-4.07-2.52,3.82-6.15,2.95c0.91-1.98,0.01-4.13-0.68-3.81c1.46,0.36-0.05,3.62-1.74,4.93c-1.99-2.12-2.8,0.66-3.99,0.21
						l1.23,1.06c-0.92,1.98-2.03,1.45-3.8,1.76c0.21-1.65,1.72-0.8,1.29-1.64c-2.59,3.28-3.28-4.68-6.33-2.74
						c-0.87-1.66,0.72-3.94-0.11-5.11c-3.41,2.11-2.48-3.5-5.94-1.89c0.28,2.98,0.57,2.33-2.1,4.62l5.32-0.95l-4,3.42
						c1.47,0.35,3.49-1.11,4.28-0.45c-1.98,1.97-1.68,1.31-1.46,3.78c-1.14-4.63-4.52,1.61-6.26-1.71l1.51-6.93
						c-2.89-3.84-7,2.28-11.23-0.38l1.23,1.5c-1.17,2.64-2.91-0.18-4.61,0.64c0.6-2.3-0.17-3.33-0.52-4.9
						c-0.26,1.74-3.33-0.84-4.65,3.74l-1.47-3.45c-3.49-1.95-5.5,5.84-8.9,4.38c1.54-2.33,0.22-4.29,2.95-5.65
						c-1.19-0.25-2.19-0.87-2.5,0.74c-0.44-1.59-3.88,2.51-4.58,0.12c-0.69,0.94-1.29,3.35-2.59,2.93c-0.06-0.5,0.21-1.15,0.21-1.15
						c-0.21,1.15-2.37,1.21-1.66,3.99c-2.42-7.9-10.33-1.28-12.53-8c-2.75,0.38-6.02,0.64-8.42,0.44c0.26-0.68,0.18-1.17,0.6-0.85
						c-2.96-2.68-3.01,6.38-6.38,3.45c-1.37-4.05,2.28-1.78,1.3-3.38c0.58-7.79-4.67,0.44-6.58-4.42l0.67-0.37
						c-1.6-2.88-5.11,2.26-8.19,1.33c0,0,0.24-0.67,0.16-1.17c-2.66,3.7-6.88,4.54-10.03,5.29c1.27-2.92,1.55-1.45,1.32-4.59
						c-1.41,0.28-0.15,4.99-2.95,5.55c-0.7-1.76-2.5-3.44-2.44-6.74c0.87,0.01,1.73,0.07,2.6,0.1c-0.87-4.42-3.36-0.21-4.64-1.06
						l0.36-1.84c-4.04,0.24-4.52,4.93-8.72,4.22l0.32,1.45c-2.69,4.45-1.73-2.79-4.31,0.47l-0.34-4.77
						c-1.63,1.04-5.71,4.23-8.49,4.94c1.76-3.41,5.11-5,7.27-6.95c-1.53-0.13-5.24,0.02-6.17,2.3c0.64-0.42,1.49-1.53,2.05-0.76
						c-2.12,3.6-4.66,5.27-7.66,5c1-9.21-7.79-2.6-9.77-9.82c-5.51,3.14-10.78-1.63-17.19-1.12c2.3,7.15-1.86,0.2-1.39,7.54
						c-1.45,0.46-2.01,0.35-2.15-0.12l-4.55-4.24c-1.12-2.1,1.37-1.66,1.19-3.3c-3.28-0.46-1.45-3.06-3.69-4.94
						c0.53,2.61-1.02,3.79-2.92,2.85l2.75,3.3c-4.38,4.07-4.2-6.07-8.64-1.96l1.34-2.4c-2.3,1.52-8.82,0.56-10.65,6.6
						c-0.48-0.82-1.2-2.78-0.2-3.38c-1.43-0.11-2.9,0.25-4.37,0.88c-1.47,0.65-2.93,1.52-4.35,2.29c-2.84,1.55-5.52,2.73-7.92,1.17
						l0.2-1.83c-0.99,0.65-1.4,3.51-2.94,1.94c-0.03-0.75,0.18-1.84-0.32-1.87c-0.48,0.7-2.34,3.54-3.87,2.71l0.89-2.18
						c-2.91-0.74-4.85,0.8-6.56,2.76c-1.71,1.97-3.21,4.29-5.33,5.39c-0.92-5.2-5.54-6.03-7.87-6.44l-0.07-0.75
						c-6.57,0.55-9.87,6.68-15.07,10.1c-2.51-2.33-5.75-2.16-9.1-1.46c-3.36,0.67-6.85,1.77-10.12,1.11
						c1.14,0.65,1.08,3.97,0.26,4.79c-1.63-0.61-2.46,4.63-3.73-0.05l0.49-0.06c-2.42-4.22-4.7-2.17-6.78-1.63l1.6,6.14
						c-8.17-7.04-12.93,7.69-18.2,0.63c-0.8,1.89-2.37,2.36-3.17,4.22l-0.88-3.28c-3.69,0.15-5.49,0.21-9.49,2.06l0.26-2.56
						c-2.36,0.33-0.66,10.27-2.91,10.97l-1.77-4.8c-1.03,0.24-2.13,0.22-3.24,0.11c-1.1-0.13-2.21-0.34-3.28-0.41
						c-1.08-0.05-2.11-0.03-3.09,0.36c-0.98,0.38-1.9,1.14-2.76,2.4c-0.03-0.75-0.11-2.2,0.52-2.5c-0.96,0.07-2.89-0.58-4.38-0.37
						c-1.46,0.17-2.52,1.15-1.92,4.6c-0.21-2.26-1.22-2.29-2.47-1.48c-1.24,0.74-2.77,2.31-3.88,3.34l0.3-3.35
						c-1.78,4.32-1.89,5.42-4.61,6.58c-0.63-0.45-0.46-2.68,0.35-1.82c-1.02-0.88-1.45-0.12-1.95,0.63c-0.5,0.75-1.09,1.5-2.31,0.52
						l1.1-2.07c-2.11-0.42-2.02,0.79-3.47,3.11c-1.54,1.15-4.09-1.31-3.89-4.39c-0.54,1.77-2.14,4-3.27,2.91
						c0.04-1.15,0.63-1.77,0.92-2.07c-1.55-1.39-2.98-0.77-4.35-0.22c-1.35,0.56-2.61,1.01-3.33-0.95c0.26-1.08,0.26-1.66,0.16-2.03
						c0.65,0.22,1.27,0.43,1.83,0.62c0.57,0.17,1.08,0.32,1.5,0.47c0.84,0.28,1.31,0.51,1.18,0.6c0.64-3.02-1.26-4.02,1.32-7.79
						c-1.04,0.92-2.61,2.53-4.12,3.48c-1.51,0.97-3.04,1.47-3.83,0.47c0-0.32,0-0.63,0.08-1.11l0.31-0.25
						c-0.35-0.46-0.83-0.33-1.39,0.01c-0.45-0.71-0.7-1.2-1.28-1.46c0.35-1.24-0.09-1.72-0.69-2.05c-0.6-0.32-1.41-0.39-1.84-0.65
						c-1.3,3.12-2.38,2.05-2.32,5.12c-0.06-0.29,0.36-0.28,1.08-0.11c0.19-0.02,0.39,0.01,0.56-0.13c-0.05,0.07-0.12,0.15-0.18,0.24
						c0.35,0.1,0.74,0.23,1.17,0.38c0.45,0.12,0.93,0.26,1.44,0.42c-0.71,0.65-1.43,1.23-2.02,1.37c-0.59,0.13-1.05-0.21-1.24-1.32
						c-1.38,1.76-2.91,3.52-3.7,4.31c0.12-1.24,0.11-2.38,0.05-3.43c-0.04-1.09-0.12-2.1-0.18-3.03c-0.12-1.86-0.16-3.42,0.39-4.77
						c-0.94,0.08-1.8-0.14-2.7-0.34c-0.89-0.21-1.83-0.41-2.79-0.55c-1.86-0.33-4.04-0.09-6.88,1.66c-1.27-0.03,0.3-2.15,0.69-3.13
						c0.82-0.13,1.25,0.37,2.04-0.15c-1.21,0.02-2.36-0.77-3.63-1.19c-1.25-0.44-2.55-0.62-4.31,0.77c-0.17-1.6,0.82-2.04,1.47-2.36
						c0.64-0.31,0.97-0.47-0.45-1.38l1.3-0.61c0.07-1.14-0.02-2.04-0.32-2.71c-0.3-0.67-0.81-1.12-1.47-1.45
						c-1.34-0.62-3.16-0.93-5.05-1.35c-3.74-0.88-7.44-2.42-5.68-8.29c-0.18,0.78-0.25,1.15-0.83,1.64
						c-0.71-5.02-4.12-8.97-7.79-12.87c-0.92-0.97-1.88-1.92-2.75-2.92c-0.91-0.97-1.79-1.95-2.57-3.02
						c-0.83-1.03-1.57-2.13-2.21-3.36c-0.68-1.18-1.24-2.51-1.71-3.99c-1.49-2.92-3.56-1-6.26-0.32l1.67-3.28
						c-0.84,0.24-1.66,0.5-2.47,0.76c-0.83,0.28-1.64,0.57-2.44,0.87c-2.56,0.08-2.89-2.67-3.75-5.35c-0.44-1.3-1-2.57-1.94-3.35
						c-0.95-0.75-2.29-0.98-4.14-0.24l-0.33,2.53c-0.78-0.64-2.37-0.83-3.55-1.24c-1.19-0.39-2.05-0.87-1.44-2.16
						c-0.34,0.35-1.41,2.2-1.74,0.76l0.51-1.83c-0.94,0.24-1.89,0.59-2.8,0.88c-0.92,0.32-1.81,0.6-2.7,0.99
						c-1.63-1.05-1.14-2.87-0.86-4.6c0.27-1.71,0.32-3.46-2.65-4.08c-0.58,0.1-1.31,0.42-2.05,0.91c-0.75,0.5-1.5,1.14-2.14,1.81
						c-1.28,1.34-2.1,2.79-1.76,3.45c0.81,0.17,1.97,1.37,1.83,3.26l-1.81,0.83c-0.35,2.77-0.9,5.56-0.91,8.19
						c-0.01,2.62,0.44,5.09,1.74,7.16c0.84-1.06,1.73-2.04,2.69-3.06c0.09,0.93,0.18,1.84,0.24,2.79c-0.61-0.06-1.23-0.07-1.84-0.11
						c0.63,2.68,1.57,0.51,2.64-0.82c-0.11,1.45-0.02,2.5,0.27,3.11c1.06-1.62,2.2-3.13,3.43-4.64c-0.35,2.17-2.07,3.94-1.04,5.46
						c0.82-1.06,0.95-2.3,1.1-3.41c0.16-1.11,0.34-2.13,1.46-2.65c0.35,2.8-0.68,4.64,1.26,3c-0.31,1.41-0.88,2.19-1.54,2.64
						c0.4-0.32,0.79-0.47,1.17-0.55c0.38-0.06,0.75-0.05,1.13-0.08c0.75-0.06,1.51-0.3,2.38-1.55c-0.09,1.69,0.86,1.91,1.58,2.3
						c0.71,0.42,1.13,1.04-0.16,3.35c0.44-0.48,1.36-1.17,2.33-1.69c0.96-0.5,1.95-0.8,2.48-0.61c-2.47,2.21-1.65,2.8-0.78,3.51
						c0.86,0.77,1.82,1.66-0.34,4.29c2.16-1.95,3.57-1.7,4.85-1.08c0.63,0.33,1.25,0.74,1.96,1.02c0.68,0.32,1.46,0.5,2.48,0.37
						c-0.42,0.23-1.25,0.71-1.21,0.34c0.73,1.3-0.22,2.83-0.39,4.19c1.74-1.57,3.21-2.16,4.62-2.43c1.39-0.25,2.74-0.23,4.28-0.66
						c-1.12,2.18-2.4,2.81-3.7,3.37c-1.32,0.55-2.68,1.02-4.17,2.64c1.41-1.27,2.64-1.37,3.72-1.36c1.1-0.01,2.13,0.02,3.19-1.2
						c-1.37,2.79-0.34,1.76-3.07,4.63c4.91-3.26,1.53,0.42,5.18-0.63c-1.22,3.4-4.3,3.46-1.52,4.47c-0.45,0.97-1.41,1.27-2.25,1.35
						C40.83,52.71,40.12,52.57,40.12,52.57z M98.77,92.29c-0.01,0.03-0.02,0.05-0.02,0.06c-0.61-0.09-1.11-0.21-1.44-0.28
						C97.61,92.13,98.02,92.23,98.77,92.29z M104.45,93.87c-0.67-0.27-1.51-0.55-2.42-0.8c0.12-1.18,0.67-2.27,1.2-2.05
						C102.71,91.68,103.83,92.74,104.45,93.87z M101.47,68.35c0.8-0.17,0.78,0.49,0.62,1.18c-0.33-0.06-0.74-0.07-1.28-0.07
						c-0.06,0.09-0.17,0.26-0.23,0.35C100.88,69.24,101.18,68.71,101.47,68.35z"/>
					<path class="st0" d="M98.59,71.91c-0.13,0.02-0.24,0.13-0.37,0.1c0.02,0.33,0.05,0.62,0.1,0.87c0.22-0.3,0.45-0.6,0.65-0.87
						C98.84,71.98,98.71,71.94,98.59,71.91z"/>
					<path class="st0" d="M568.86,92.74l-0.1-0.1c0.07,0.15,0.13,0.29,0.14,0.51C568.87,92.99,568.89,92.88,568.86,92.74z"/>
					<polygon class="st0" points="183.32,93.87 183.07,93.06 182.83,93.91 					"/>
					<path class="st0" d="M595.91,108.93c0.01,0.3,0.08,0.62,0.26,0.91C596.19,109.62,596.06,109.29,595.91,108.93z"/>
					<path class="st0" d="M608.46,111.42l1.64,1.42C609.42,112.07,608.89,111.67,608.46,111.42z"/>
					<path class="st0" d="M618.04,114.27c0.19-0.57,0.28-1.01,0.35-1.42c-0.01-0.01-0.01-0.01-0.02-0.03L618.04,114.27z"/>
					<path class="st0" d="M464.45,89.25c-0.13-0.01-0.27,0.01-0.4,0.07C463.06,89.77,463.69,89.65,464.45,89.25z"/>
					<path class="st0" d="M511.06,91.34c-0.61,0.49-1.21,0.98-1.79,1.24C510.03,93.01,510.63,93.21,511.06,91.34z"/>
					<path class="st0" d="M413.78,83.23c0.01-0.02,0.01-0.03,0.02-0.06c-0.11-0.01-0.2-0.03-0.31-0.05L413.78,83.23z"/>
					<path class="st0" d="M507.2,92.07c0.66,0.83,1.36,0.84,2.08,0.51C508.67,92.22,507.97,91.72,507.2,92.07z"/>
					<path class="st0" d="M660.73,119.01l0.47,0.15c0-0.22,0.03-0.4,0.07-0.54L660.73,119.01z"/>
					<path class="st0" d="M661.28,118.62l0.54-0.39C661.58,118.23,661.37,118.25,661.28,118.62z"/>
					<path class="st0" d="M662.97,117.41l-1.14,0.82C662.21,118.25,662.69,118.37,662.97,117.41z"/>
					<path class="st0" d="M647.68,116.83l-0.22,1.21C647.56,117.79,647.63,117.4,647.68,116.83z"/>
					<path class="st0" d="M643.68,116.97c0.93,0.33,2.22,2.73,3.6,2.04l0.18-0.96C646.72,119.82,644.71,114.96,643.68,116.97z"/>
					<path class="st0" d="M628.6,100.52c1.04,0.44,2.09,0.89,3.14,1.29c-0.45-1.34-1.02-3.15,0.47-3.34
						C628.52,94.24,632.78,101.48,628.6,100.52z"/>
					<path class="st0" d="M618.81,97.58c1.8-0.42,0.19-1.88,0.37-2.61C617.95,96.04,617.65,96.31,618.81,97.58z"/>
					<path class="st0" d="M546.95,85.82l0.78-2.98C546.32,83.02,547.48,84.01,546.95,85.82z"/>
					<polygon class="st0" points="530.01,98.54 530.92,100.68 532.11,98.05 					"/>
					<polygon class="st0" points="526.41,75.43 527.08,75.12 524.65,75.74 					"/>
					<path class="st0" d="M404.74,51.6l-0.2,3.8C405.56,54.89,406.45,50.72,404.74,51.6z"/>
					<path class="st0" d="M350.6,48.64c-0.43-1.94-1.85-3.29-2.94-1.52C348.85,47.49,349.94,49.06,350.6,48.64z"/>
					<polygon class="st0" points="187.76,60.69 188.39,59.16 186.8,60.78 					"/>
				</g>
			</g>
		</g>
	</g>
</g>
<g>
	<g>
		<g>
			<g>
				<g>
					<path class="st0" d="M672.46,193.99c0.22-1.09-0.45-3.36-1.46-2.68l-0.02,4.06L672.46,193.99z"/>
					<path class="st0" d="M663.55,188.35c-0.9,2.19-1.57,5.82,0.11,9.17c0.37-4.01,1.03-2.52,1.41-7.28
						c1.01-0.73,2.21,0.84,2.32,2.3c0.18-1.08,1.88,0.51,1.98-2.05c-2.04-2.72-3.98-2.48-5.3,0.46
						C663.46,190.19,663.62,189.08,663.55,188.35z"/>
					<path class="st0" d="M562.16,235.96l0.83,0.02C562.69,235.86,562.41,235.87,562.16,235.96z"/>
					<path class="st0" d="M497.83,244.31c0.53-0.09,0.76-0.47,0.79-0.83C498.12,243.73,497.72,243.96,497.83,244.31z"/>
					<path class="st0" d="M486.15,239.6c0.25,0.13,0.46,0.2,0.69,0.29C486.58,239.52,486.32,239.31,486.15,239.6z"/>
					<path class="st0" d="M562.16,235.96c-0.72-0.03-1.42-0.05-2.13-0.11C560.62,237.02,561.29,236.18,562.16,235.96z"/>
					<path class="st0" d="M651.49,201.52c0.3-0.29,0.48-0.73,0.61-1.27c-0.24,0.25-0.48,0.47-0.74,0.66
						C651.41,201.12,651.45,201.3,651.49,201.52z"/>
					<path class="st0" d="M584.4,214.82l0.47-0.36c-0.13-0.47-0.32-1.01-0.56-1.6L584.4,214.82z"/>
					<path class="st0" d="M604.7,200.81c-0.56,0.16,0.96,3.17,1.52,4.55c-0.43-1.36-0.41-2.14-0.12-2.61
						C605.79,202.19,605.35,201.57,604.7,200.81z"/>
					<path class="st0" d="M642.27,190.19l0.49-0.66C642.64,189.72,642.4,189.94,642.27,190.19z"/>
					<path class="st0" d="M570.41,224.9c-0.34-0.37-0.68-0.66-0.92-0.81C569.75,224.42,570.07,224.69,570.41,224.9z"/>
					<path class="st0" d="M37.32,274.83c-0.12-0.21-0.23-0.32-0.34-0.49C37.07,274.68,37.18,274.9,37.32,274.83z"/>
					<path class="st0" d="M7.34,279.43l0.12-0.4c-0.46-0.45-0.9-0.89-1.38-1.29L7.34,279.43z"/>
					<path class="st0" d="M464.92,234.33c0.03,0.04,0.05,0.04,0.08,0.07C465.54,234.05,465.24,234.1,464.92,234.33z"/>
					<path class="st0" d="M337.19,118.91c1.65,1.1,0.89,2.32,0.35,3.52c-0.55,1.21-0.89,2.39,1.34,3.5
						c-0.35-0.59,0.09-2.08,0.22-3.56C339.21,120.89,339.01,119.41,337.19,118.91z"/>
					<path class="st0" d="M650.81,201.28c-0.28,0.13-0.56,0.26-0.86,0.32C650.38,201.58,650.64,201.47,650.81,201.28z"/>
					<path class="st0" d="M338.88,125.93l0.01,0.03l0.45,0.2C339.15,126.07,339.04,126.01,338.88,125.93z"/>
					<path class="st0" d="M453.31,210.06c-0.56,0.21-0.97,0.49-1.35,0.78C452.3,210.75,452.69,210.55,453.31,210.06z"/>
					<path class="st0" d="M457.66,239.41c-0.03-0.23-0.06-0.43-0.07-0.65C457.52,239.12,457.59,239.29,457.66,239.41z"/>
					<path class="st0" d="M444.84,191.76c0.14-0.56,0.56-0.83-0.03-1.43c-0.15,0.1-0.26,0.19-0.36,0.3
						C444.96,190.78,445.24,191.07,444.84,191.76z"/>
					<path class="st0" d="M439.32,171.11c-0.2,0.19-0.34,0.4-0.52,0.6c0.13,0.18,0.26,0.41,0.38,0.6L439.32,171.11z"/>
					<path class="st0" d="M88.03,252.48c-0.62-0.83-1.11-1.79-1.54-2.76C87.31,251.99,84.76,253.46,88.03,252.48z"/>
					<path class="st0" d="M650.91,199.72c0.15,0.84,0.12,1.3-0.11,1.56c0.2-0.1,0.38-0.24,0.55-0.37
						C651.26,200.42,651.13,199.96,650.91,199.72z"/>
					<path class="st0" d="M418.65,196.56l-0.16-3.06C418.36,194.39,418.42,195.51,418.65,196.56z"/>
					<path class="st0" d="M230.86,214.45l-0.51,0.7C230.65,215.09,230.86,214.88,230.86,214.45z"/>
					<path class="st0" d="M415.87,185.24c1.01-0.82,1.54-1.55,1.79-2.2c-0.29-0.04-0.54-0.1-0.93-0.06
						C416.47,183.72,416.18,184.48,415.87,185.24z"/>
					<path class="st0" d="M86.47,249.69c0.01,0.01,0.01,0.03,0.01,0.03S86.48,249.7,86.47,249.69z"/>
					<path class="st0" d="M69.75,262.7c2.62-0.79-0.14-4.54-0.37-7.15c2.88-2.23,2.5,2.64,4.26,4.46c1.61-1.74,2.05-6.1,3.65-6.36
						c0.31,0.67,0.68,0.84,0.58,1.82c0.6-2.01,2.23-2.5,3.87-3.06c1.64-0.59,3.31-1.27,4.13-3.72c0.28,0.34,0.47,0.68,0.59,0.99
						c-0.92-2.06-1.51-4.25-1.78-5.83c1.29-0.37,1.83-3.3,2.95-0.58c-0.83,0.09-0.64,1.26-0.81,2.22l1.1-1.54
						c2.13,3.8-1.56,1.82-0.87,4.84c2.31-1.92,4.75-5.96,7.06-5.21c1.21,3.89-4.51,2.33-1.06,5.31l-3.46-0.86
						c3.75,5.78-1.98-0.04,1.66,6.22c4.28,0.29,4.13-2.98,8.47-2.62c0.52-2.4-0.93-3.24-0.41-5.63c5.27-5.1,6.47,9.25,9.91,3.14
						c0.69-2.87,0.31-8.03,3.91-5.85l-0.34,4.72c4.18-0.22,1.32-6.92,6.14-4.54c-0.49,1.91-3.02,2.02-2.31,2.46
						c3.37,3.15,1.58-2.9,3.76-3.23l1.08,3.96c4.33-1.32,8.83-4.99,13.68-6.51c-0.08,1.24-0.74,2.64,0.62,3.69
						c5.98-3.01,13.58-1.72,20.3-0.58l1.69-3.93c0.56-0.07,1.34,1.35,0.88,2.14c2.7,0.81-0.32-2.21,0.55-3.81
						c1.31-0.52,2.23,1.61,1.58,2.82c3.72-3.83,10.62-9,16.01-6.62l-0.59,1.24c3.89,0.45,1.92-8.04,5.99-5.8l-0.43,0.78
						c3.92-0.37,7.69-2.01,11.33-3.22c1.83-0.58,3.63-1.08,5.43-1.25c1.81-0.16,3.64,0.02,5.5,0.71c-0.38-2.57,1.6-2.74,3.44-3.12
						c1.82-0.41,3.49-1.04,2.35-4.39c2.71,0.78,3.91,1.56,5.26,2.1c1.35,0.54,2.87,0.89,6.24,0.65c1.67-0.42,0.42-5.07,1.96-6.61
						l1.64,3.32c0.3-1.56,0.57-3.15,0.84-4.72l3.29,3.31l1.33-1.71c-0.8,0.15-2.22-0.76-2.59-1.76c0.98-1.4,2.9-1.66,4.71-1.38
						c1.81,0.29,3.52,1.13,3.99,1.95c1.65-2.04,3.24-4.14,4.83-6.19c0.59,1.37-0.22,2.4-0.6,3.69c1.54-5.16,2.54,3.09,3.92-1.69
						c-0.83-0.49-0.87-2.04-1.17-2.73c1.31,0.53,2.84,0.3,4.31-0.35c1.46-0.67,2.83-1.78,3.85-2.95l0.84,2.47
						c2.49-1.1,4.71-2.92,6.97-4.8c2.21-1.92,4.48-3.93,6.91-5.6c-2.42,0.23-4.5-3.71-3.33-5.03l2.78,2.83
						c-0.45-2.62-2.31-0.2-2.12-3.92c2.05-0.86,3.75,2.81,3.42,4.58l1.43-2.64c0.8,0.87,0.64,1.73,1.35,3.04
						c-0.49-2.61,6.03,0.54,4.89-3.81l0.8,0.86c4.76-3.38,6.07-6,9.72-8.91c-1.92-2.78-0.01-3.24-0.5-6.26
						c3.39-1.13,7.97-1.2,11.07-3.74c1.33-3.01-0.98-2.81-1.1-5.19c1.95,2.37,5.05-0.13,4.62,2.86c3.65-3.14,4.63-3.97,8.28-9.33
						c-1.23-0.71-2.15-0.77-2.4-1.85c0.65-1.02,2.8-0.26,3.46,1.07l-0.07,0.42c0.79-1.88,2.32-2.88,4.16-3.36
						c1.84-0.51,3.99-0.57,6.05-0.56c2.06-0.02,4.02-0.05,5.57-0.5c1.55-0.46,2.66-1.5,3.09-3.46l-0.11,0.41
						c1.08-1.74,2.18-3.54,3.34-5.28c2.44-0.46-0.38,2.67,2.03,3.71c0.75-1.71,1.68-2.76,2.67-3.43c0.99-0.68,2-0.86,3.01-1.06
						c2.05-0.3,3.96-0.32,5.63-2.57c2.91,3.85,5.59,3.01,8.52,1.87c2.88-1.14,6.09-2.52,8.5,0.2l-0.43-2.11
						c0.99-2.2,1.48,1.13,2.32,1.56c-0.2-1.65-1.35-1.84-0.7-3.04c2.43-0.81,4.98-0.95,7.49-0.64c2.51,0.3,4.97,1.07,7.27,2.13
						c4.65,2.07,8.49,5.25,11.83,7.81c1.22,0.9,2.83-1.39,4.38-3.06c0.76-0.83,1.51-1.51,2.15-1.57c0.65-0.08,1.19,0.52,1.42,2.17
						c-1.05,0.91-2.06,1.83-3.05,2.77c3.93-0.43,6.72,1.73,8.96,4.1c0.59,0.57,1.09,1.24,1.66,1.83c0.55,0.61,1.08,1.24,1.69,1.8
						c0.57,0.62,1.18,1.21,1.89,1.73c0.71,0.52,1.54,0.97,2.39,1.47c-0.99,0.15-1.97,0.78-2.31,0.23c-0.82,1.4-0.22,2.48,0.91,3.11
						c1.15,0.59,2.67,0.93,3.73,0.38c0.27,1.11-1.76,1.23-2.52,2.37c-0.44,1.03,0.82,1.36,1.87,1.82c1.04,0.46,1.93,0.93,0.78,1.87
						c-0.38,0.31-1.03-0.01-1.34-0.17c0.83,0.16,1.2,1.24,1.71,2c0.47,0.8,1.07,1.32,2.45,0.26c-0.26,1.61,0.57,2.69,1.29,3.83
						c0.7,1.15,1.34,2.26,0.74,3.64c2.02,0.17,1.9,1.58,1.97,2.74c0.06,1.17,0.26,2.15,2.87,1.75c-5.32,1.17-2.98,6.15-0.1,7.61
						c-1.74-0.29-1.3,2.03-3.68,1.76c0.55,2.13,1.94,4.01,4.6,3.06c-5.53,5.37,6.78,7.42-0.92,11.43
						c4.21,6.39,7.43,12.6,10.29,18.73c-2.65,0.55-3.22-1.22-3.79-2.92c-0.6-1.71-1.12-3.29-3.87-2.55
						c0.86,1.41,1.89,2.65,2.91,3.79c1.03,1.12,2,2.18,2.96,3.23c0.95,1.06,1.79,2.14,2.41,3.34c0.61,1.19,1.06,2.58,1.3,4.36
						c-0.12,1.99-2.57-0.26-3.62-0.59c0.53,0.77,1,1.57,1.44,2.4c0.22,0.42,0.43,0.85,0.65,1.27c0.24,0.5,0.47,1,0.7,1.49
						c1.02,2.19,2.05,4.32,3.29,6.29c1.24,1.97,2.69,3.76,4.43,5.18c1.73,1.41,3.74,2.45,5.94,2.85c-0.27,0.42-1.36,0.44-2.33,0.28
						c1.5,0.82,3.13,2.68,4.09,0.41c-0.59-0.02-1.17-0.09-1.76-0.15c-0.22-2.19,2.2-2.88,4.46-3.71c2.31-0.8,4.5-1.75,4.88-2.64
						c-1.05,1.56-1.29,2.52-1.01,3.24c0.26,0.73,1.01,1.18,1.73,1.65c0.72,0.48,1.42,0.97,1.62,1.87c0.18,0.9-0.07,2.23-1.65,4.25
						c1.25-0.27,2.79-1.3,2.72-2.96c0.36,0.16,0.7,0.34,0.91,0.54c0.17,0.2,0.28,0.44,0.31,0.71c0.03,0.27-0.03,0.58-0.18,0.93
						c-0.15,0.35-0.37,0.74-0.9,1.17c0.19-0.02,0.43-0.05,0.57-0.08c0.14-0.04,0.27-0.07,0.4-0.1c0.24-0.07,0.46-0.16,0.67-0.24
						c0.41-0.17,0.72-0.36,0.99-0.56c0.55-0.4,0.86-0.84,1.18-1.22c0.62-0.78,1.17-1.4,2.88-1.28c-0.07,1.19-0.79,1.61-1.22,2.99
						c1.86-2.23,3.71-4.46,6.56-3.32c-0.21,0.71,0.09,1.66-0.78,1.6c5.01-0.13,8.73-5.8,14.08-3.37c-1.78,5.12,1.8,1.76,1.94,6.25
						l2.98-1.25l-1.11-2.21c2.57,0.16,4.93-3.05,7.09-1.53l-1.95,1.8l4.84-0.74l-2.69-1.76c2.65-2.25-0.15-5.67,3.23-4.35
						c-0.7,0.44,2.55,0.11,3.84,2.77c0,0-0.01,0-0.01,0.01c1.29-1.4,2.61-2.89,4.49-1.75c0.47,1.44-0.46,4.95-0.15,5.91
						c1.29-3.73,6.04-0.97,7.66-4.97c-0.53,0.94-0.57,3.29-0.39,3.77l1.06-3.04c1.2,0.98,1.38,1.44,1.19,3.32
						c3.66,0.52-1.2-5.67,3.13-3.27c-0.33,0.25-0.17,0.71-0.87,1.18c2.18,0.61,4.3,0.07,6.35-0.48c2.06-0.56,4.05-1.11,6.14-0.55
						c1.63,4.4-3.5,1.39-1.82,5.07c3-0.62,6.04-2.31,8.96-3.9c2.93-1.58,5.73-3.07,8.71-3.35l-1.19-0.19
						c-0.4-3.19,0.78-2.69,2.43-1.91c1.61,0.75,3.78,1.79,4.68-0.18c-0.52,0.7,0.28,3.66,0.24,2.92c2.17-0.24,4.11-1.46,5.97-3.2
						c1.87-1.74,3.64-4.01,5.65-6.45l0.22,1.79c2.83,0.01,5.71-2.7,8.16-3.58c-0.36-1.76,0.92-2.39-1.19-3.78
						c5.84,1.45,7.94-1.84,9.64-5.07c1.72-3.24,3.24-6.59,8.11-5.43c-0.59,0.46-0.53,2.22-0.06,1.85l3.32-4.39
						c-1.99-1.97-1.55-0.93-3.76-1.97c-0.44-1.72,0.02-3.7,1.14-4.49c-0.92,2.92,2.65,3.57,4.38,4.25
						c-0.64-0.59-0.89-1.56-1.47-2.21c5.15,2.4-2.84-4.84,2.27-4.36l0.65,1.32c0.78-1.41,0.84-3.76,2.39-4.3
						c2.3,2.32-0.47,2.11,0.91,4.36c0.85-0.67,0.91-2.55,1.21-4.05c0.31-1.48,0.84-2.61,2.53-1.78c-0.32,1.26-1.45,1.98-1.76,3.22
						c3.85,2.03,3.53,1.11,5.18,0.78l-0.18,0.01c1.32-0.17,2.65-0.3,3.98-0.41l-1.32-0.41c-0.98-4.27,0.06-5.32,1.35-6.1
						c1.31-0.77,2.9-1.23,3.24-4.54c-0.7,6.29,0.91,2.92,2.38,6.26c1.29,0.44,3.04,0.78,3.17,1.87c0.15-3.38,3.54,0.79,3.74-4.12
						c0.6,0.98,1.68-0.69,2.62,2.12c1.57-1.76-1.35-1.62-1.83-3.01c0.68-2.52,3.04-2.32,5.45-2.28c2.44,0.08,4.87-0.14,6.13-3.56
						c3.09-3.7,2.48-7.62,5.68-10.89c0.96,0.65,1.04,1.75,0.89,2.69c-0.15,0.94-0.53,1.71-0.53,1.71c2.63,0.86,4.06,0.11,5.6-1.84
						c-0.08,1.1,0.6,1.79,1.58,2.84c1.45-0.79-0.22-4.39,2.36-3.37c0.02,1.36,0.17,3.49-0.19,4.96c1.5-1.55,2.68-4.25,4.35-5.77
						c1.05,1.84-0.34,3.27-0.63,4.77c1.86-1.48,5.04-3.27,4.94-6.58l-1.69-0.75c0.76-0.37,1.09,2.58,0.66,3.3
						c-1.2,2.94-2.96-0.37-3.39-1.47l1.19-1.09c-1.6-3.11-2.98-2.5-4.25-0.98c-1.28,1.52-2.45,3.83-3.88,4.07l-0.33-5.12
						c-0.57,1.6-1.1,3.24-1.61,4.87c-1-1.04-2.31-3.54-1.15-4.71c-2.81-1.66-1.22,2.28-3.85,0.25c-0.33-0.34-0.32-0.6-0.21-0.84
						c-0.51,0.68-0.99,1.4-1.48,2.1c0.03-1.13-1.52-3.2-0.05-2.97c-2.27-0.7-3.41,0.71-4.27,1.9c-0.87,1.18-1.46,2.22-2.82,0.72
						l0.18-0.4c-2.14,1.77-1.9,2.66-1.4,3.8c0.51,1.14,1.27,2.52,0.33,5.22c-1.95-2.44-3.93-4.86-5.95-7.27l0.99,3.57
						c-0.55,0.09-1.63,0.27-2.05-1.15c-0.82,3.09,0.96,1.32,0.87,3.94c-1.86-1-3.31,0.14-4.65,0.85c-1.35,0.71-2.59,1.08-4.15-1.4
						c0.42,2.91,3.16,0.81,1.57,3.79c-1.75-2.63-2.35-2.02-2.93-0.96c-0.57,1.07-1.11,2.58-2.82,1.89
						c-0.89-3.21,1.94-2.76-1.54-4.19c0.64,2.77-0.5,3.05-2,2.9c-1.5-0.16-3.36-0.75-3.97,0.23c2.1,3.85-2.92,3.74-5.01,6.81
						c-0.29-0.67-1.96-0.35-4,0.22c-2.01,0.61-4.41,1.44-6.18,1.69l-0.34-0.66c1.99,3.99-1.13,5.17-2.5,7.29
						c-1.49-2.19-1.76-3.27-1.38-4.99c-0.61,0.45-1.23,0.88-1.82,1.34c0.41,1.46,0.3,2.48-0.56,3.75l-1.53-2.97
						c-2.34,1.97-2.43,6.74-6.71,7.38c1.77,2.52,7.67,4.81,5.9,8.87c-1.16-1.2-3.06-3.32-2.68-4.5c-0.13,0.38-0.07,1.83-1.04,1.7
						l-0.53-3.16c-2.09,0.11,0.78,2.37-0.44,3.02c-1.47-1.86-1.84-0.69-2.87-2.27c0.12-0.39,1.53,0.02,1.35-1.03
						c-1.46,0.63-3.76,0.68-5.34-0.35c0.94,0.97,1.99,2.49,1.33,3.42c-2.11,1.89-2.53-1.64-4.55-1.59c0.48,1.71-1.94,1.42,0.16,4.27
						c-0.66,0.47-1.77-0.77-2.59-1.35c-0.19,2.13-5.01,4.09-1.62,6.32l0.44,0c-0.02,0.1-0.08,0.15-0.11,0.26
						c0.01-0.01,0,0,0.01-0.01l-0.01,0.01c-0.96,2.77-3.36,3.67-5.81,4.14c-2.46,0.51-4.92,0.49-6.7,2.01l-0.42-1.11
						c-1.95,2.26-5.26,2.6-6.56,5.54c-0.82,0.19-2.35-1.68-2.31-3.13c-1.79,1.27-1.84,2.67-5.1,1.19c1.72-2.37-0.97-1.7,1.84-1.82
						c-2.79-0.59-3.51-2.39-6,1.13c0.63-3.12-2.32-3.59-3.51-2.62l2.04,2.02c-1.4,0.55-2.68,0.39-3.98,0.19l0.46-4.02
						c-2.8-2.26-5.15-0.14-7.5,1.56c-2.35,1.68-4.63,2.94-6.8-1.15c-1.55,2.78,3.13,1.98,1.75,5.24c-2.68-0.55-5.42-6.31-6.25-6.34
						c-3.64-2.26-3.52,5.79-7.35,4.2c0.46,1.43,0.87,5.24-2.06,6.52c-2.7-0.59-3.18-6.05-1.46-7.15c0.65-0.11,0.95,0.35,0.91,0.83
						c0.88-0.5,2.03-1.08,1-2.65l-0.38,1.42c-1.3-1.48-5-1.42-4.08-3.74c-2.06,1.31-0.93,2.32,0.56,3.09
						c-3.39-2.15-5.39-0.2-8.89-1.71c0.54,0.8,1,2.49,0.44,2.46c-5.15-1.94-2.39,2.62-5.95,3.12c-1.93-2.25,0.92-5.15-2.71-3.47
						c-2.11-1.56-0.3-3.79,0.6-4.92c-3.34,2.61-5.94-2.07-7.75-2.66l1.75-1.07c-1.04,0.63-1.87,0.58-2.71,0.52l0.83,2.89
						c-0.97-0.54-1.81-0.6-1.74-1.78c-1.12,1.81,0.55,4.77-1.62,7.22c-0.63-0.76-1.67-0.42-2.58-0.37
						c-0.89,0.05-1.61-0.19-1.67-2.09c0.89,0.38,1.39,0.33,1.6,0.04c0.22-0.29,0.17-0.83,0.11-1.43c-0.11-1.19-0.34-2.63,1.45-2.84
						c-0.7,0.41-1.57,0.35-2.38-0.2c-0.1-0.43,0.17-0.77,0.41-0.98c-0.4-0.45-0.72-0.72-0.95-0.85c-0.23-0.13-0.47-0.13-0.53-0.02
						c-0.15,0.75-0.23,1.16-0.31,1.59c-0.29,1.46-0.79,3.32-1.58,3.13c0.4-1.01,0.6-2.01,0.73-2.69c0.13-0.68,0.17-1.05,0.03-0.85
						c0.25,0.1-0.88,3.51-2.28,4.8c-0.21-0.97-0.57-0.81-1.07-0.51c-0.49,0.31-1.06,0.77-1.29,0.48c0.06,0.38,0.14,0.76,0.26,1.13
						c-1.43,1.71-2.05,1.03-3.37,0.65c1.08-1.3,1.55-0.16,1.74-1.01c-1.71,1.08-1.65-0.34-1.18-1.65c0.43-1.37,1.24-2.54-0.17-2.56
						c0.5-0.65,1.4-1.09,2.24-1.51c0.85-0.42,1.63-0.82,2.02-1.16c-0.35,0.03-0.59,0.06-0.74-0.04c-0.16-0.1-0.26-0.32-0.27-0.5
						c-0.02-0.41,0.23-0.81,0.5-1.27c0.27-0.44,0.55-0.89,0.59-1.36c0.03-0.47-0.19-0.94-0.94-1.56c-2.52,1.65-1.79,1.65-5.07,0.22
						c1.1,1.55,2.21,2.98,3.32,4.07c-1.61-0.4-3.25-0.97-4.89-1.65c0.4,1.54,2.65,2.45,2.46,3.33c-2.66-0.49-1.97-0.69-3.97,0.8
						c1.68-1.67,0.8-2.4-0.29-3.26c-1.08-0.86-2.33-1.8-1.27-3.42l6.87-1.76c1.02-2.17-0.22-3.58-1.71-5.12
						c-1.5-1.51-3.12-3.26-2.79-5.92l-0.86,1.85c-2.9-0.07-1.05-2.99-2.48-4.41c2.35-0.32,2.99-1.51,4.3-2.49
						c-1.71,0.44-0.57-3.74-5.3-3.31l2.62-2.88c0.44-4.44-7.53-3.49-7.56-7.68c2.77,0.71,4.04-1.47,6.4,0.91
						c-0.25-1.37-0.07-2.69-1.69-2.38c1.31-1.09-3.9-3.13-1.98-4.86c-1.14-0.36-3.61-0.01-3.74-1.58c0.43-0.27,1.14-0.25,1.14-0.25
						c-1.13,0.25-2.12-2.03-4.36-0.11c3.1-2.91,2.29-5.86,1.21-8.66c-0.51-1.4-1.07-2.77-1.24-4.13c-0.15-1.37,0.14-2.74,1.35-4.18
						c-0.91-1.39-1.91-2.92-2.79-4.42c-0.88-1.51-1.85-2.96-2.49-4.27c0.72-0.12,1.08-0.48,1.08,0.14c0.19-2.33-1.62-2.2-3.44-2.07
						c-1.82,0.11-3.6,0.23-3.53-2.31c2.28-3.91,2.94,1.16,3.54-0.81c3.27-2.1,2.44-3.34,0.87-4.52c-0.76-0.6-1.64-1.2-2.2-1.97
						c-0.56-0.77-0.78-1.73-0.36-3.04l0.86,0.4c0.34-1.79-1.23-2.68-3.07-3.48c-0.46-0.2-0.93-0.4-1.41-0.61
						c-0.49-0.2-0.99-0.41-1.46-0.64c-0.95-0.47-1.74-1.09-2.36-1.92c0,0,0.65-0.32,0.88-0.78c-4.83,0.52-9.35-1.87-12.96-3.14
						c2.74-1.74,2.34-0.24,3.65-3.14c-0.83-0.36-1.48,0.71-2.33,1.69c-0.86,1-1.87,1.85-3.44,1.31c0.05-0.98-0.2-2.11-0.31-3.37
						c-0.12-1.24-0.09-2.62,0.63-4.12c0.98,0.53,1.95,1.07,2.9,1.67c0.51-2.26-0.47-2.87-1.68-3.04c-1.2-0.19-2.6,0.04-3.2-0.7
						l1.12-1.52c-2.46-1.05-4.27-0.4-5.98,0.11c-0.85,0.25-1.71,0.53-2.63,0.56c-0.92,0.03-1.91-0.14-3.11-0.67l-0.01,1.51
						c-2.15,1.69-2.41,0.86-2.71-0.07c-0.28-0.94-0.57-2.04-2.4-0.82c0.2-1.59,0.37-3.18,0.54-4.77c-1.1,0.28-3.03,0.91-5.05,1.6
						c-1.01,0.32-2.05,0.68-3.04,0.96c-0.99,0.27-1.93,0.49-2.76,0.59c2.35-3.22,6.66-4.16,9.7-5.48c-0.94-0.3-2.6-0.58-4.18-0.56
						c-1.59,0.08-3.1,0.47-3.78,1.54c0.82-0.32,2-1.26,2.61-0.4c-3.06,3.16-6.11,4.53-9.62,4.09c0.38-2.27-0.01-3.6-0.87-4.43
						c-0.86-0.84-2.18-1.15-3.61-1.36c-1.43-0.25-2.97-0.31-4.33-0.84c-1.36-0.48-2.56-1.35-3.34-3.12
						c-3.35,1.85-6.65,1.77-10.23,1.53c-3.56-0.22-7.41-0.6-11.24,0.6c4.37,6.27-2.19,0.76,0.12,7.75
						c-1.56,0.88-2.21,0.97-2.49,0.55c-2.09-0.94-4.23-1.77-6.44-2.58c-1.93-1.59,1.12-2.1,0.46-3.59c-4.06,0.77-2.62-2.4-5.92-3.3
						c1.44,2.27-0.06,4.03-2.59,3.97c1.41,0.63,2.89,1.29,4.28,1.96c-1.96,2.82-3.54,1.85-5.25,0.91c-1.68-0.94-3.5-1.91-5.21,1.02
						c0.2-0.95,0.41-1.91,0.65-2.84c-1.05,1.2-3.43,2.36-5.56,3.99c-2.08,1.68-3.84,3.9-3.63,7.11c-0.83-0.52-2.38-1.96-1.55-3.01
						c-3.13,1.24-5.6,4.42-7.86,7.27c-2.34,2.81-4.48,5.32-7.59,5.14l-0.57-1.77c-0.73,1.1,0.13,3.96-2.11,3.29
						c-0.35-0.66-0.6-1.76-1.12-1.53c-0.19,0.87-0.88,4.37-2.74,4.4l-0.04-2.43c-6.47,1.62-4.96,9.46-8.33,13.42
						c-3.08-4.29-7.97-2.87-10.37-2.18l-0.37-0.65c-6.04,3.59-6.95,10.5-10.94,15.85c-6.5-2.4-12.21,5.56-19.11,6.02
						c1.29,0.31,2.05,3.58,1.38,4.6c-1.79-0.17-1.55,5.22-3.84,0.95l0.49-0.19c-3.35-3.49-5.24-0.98-7.29,0.06l2.79,5.71
						c-4.93-2.53-7.93,0.08-10.74,2.59c-2.79,2.49-5.31,4.95-8.57,1.9c-0.64,2.04-2.28,2.82-2.96,4.84l-1.32-3.13
						c-2.02,0.41-3.51,0.73-5.04,1.27c-1.54,0.51-3.1,1.28-5.24,2.58l0.02-2.63c-2.63,0.81,0.32,10.4-2.1,11.56l-2.53-4.48
						c-2.3,0.88-4.99,0.72-7.48,0.99c-2.49,0.31-4.78,1.07-6.41,4c-0.14-0.73-0.44-2.18,0.25-2.61c-0.56,0.14-1.43,0.18-2.37,0.25
						c-0.95,0.05-1.98,0.13-2.85,0.4c-1.74,0.54-2.87,1.82-1.53,5.06c-1.28-4.37-4.97,0.93-7.14,3.48l-0.4-3.34
						c-1.16,4.67-0.96,5.87-3.82,7.72c-0.84-0.26-1.24-2.47-0.07-1.85c-2.84-1.17-1.23,3.54-4.62,2.43l0.68-2.32
						c-2.6,0.27-2.15,1.35-3.07,4.08c-1.35,1.66-5.07,0.12-5.99-2.78c0,1.88-0.98,4.56-2.67,3.98c-0.41-1.09,0.02-1.89,0.24-2.27
						c-4.69-1.47-5.8,4.95-9.34,2.21c-0.24-1.08-0.53-1.6-0.83-1.89c3.48-0.48,6.27-0.78,6.06-0.49c-0.53-3.04-3.38-3.11-1.89-7.67
						c-1.8,2.67-4.82,8.28-7.79,7.28c-0.18-0.27-0.35-0.54-0.53-1l0.23-0.39c-0.68-0.2-1.2,0.17-1.65,0.76
						c-0.95-0.36-1.57-0.65-2.41-0.56c-0.71-2.47-3.45-0.86-4.88-0.77c0.63,3.32-1.3,3.07,0.86,5.55c-0.26-0.2,0.21-0.44,1.12-0.72
						c0.2-0.13,0.44-0.22,0.55-0.44c-0.01,0.09-0.03,0.19-0.05,0.31c0.91-0.24,2.11-0.5,3.47-0.77c-0.84,1.87-1.79,3.47-3.64,1.86
						c-0.39,2.25-0.85,4.58-1.14,5.68c-2.65-4.35-6.78-6.29-7.75-9.07c-4.05,2.55-10.12,2.87-11.8,9.6
						c-1.1,1.02-1.73-1.55-2.37-2.45c0.61-0.75,1.48-0.8,1.72-1.77c-2.21,2.01-7.29,1.95-7.06,6.4c-3.5-1.35,1.01-4.35-3.18-2.79
						l0.33-1.44c-2.47-1.32-4.46-1.11-6.2-0.13c-1.74,0.96-3.22,2.67-4.71,4.35c-1.49,1.65-3,3.28-4.85,4.11
						c-1.86,0.8-4.04,0.84-7-0.68c0.8,0.35,1.2,0.51,1.53,1.19c-5.86-0.43-11.11,2.23-16.2,4.88c-5.13,2.66-10.09,5.15-16.5,4.88
						c-1.73,0.13-2.33,0.91-2.58,1.98c-0.25,1.07-0.16,2.43-0.47,3.83l-2.37-2.83c-0.3,1.73-0.54,3.53-0.75,5.28
						c-0.59,1.25-1.59,1.65-2.81,1.69c-1.2,0.07-2.63-0.21-4.07-0.39c-2.88-0.4-5.78-0.15-6.47,3.94l2.09,1.49
						c-1.01,0.42-2.09,1.77-3.1,2.68c-1.02,0.91-1.98,1.4-2.75,0.22c0.11,0.48,1.1,2.37-0.34,1.96l-1.29-1.39
						c-0.6,2.01-1.2,3.94-1.68,5.92c-1.89,0.91-3.11-0.52-4.4-1.72c-1.29-1.19-2.67-2.14-5.01-0.03c-0.52,1.12-0.62,3.29-0.34,5.15
						c0.27,1.87,0.89,3.44,1.65,3.55c0.67-0.6,2.4-0.9,3.86,0.32l-0.55,2.09c2,1.95,3.86,4.11,5.97,5.68
						c2.1,1.56,4.44,2.58,7.22,2.4c-0.22-1.45-0.44-2.96-0.54-4.43l2.59,1.25c-0.51,0.61-1.07,1.17-1.54,1.81
						c2.75,0.77,1.74-1.33,1.33-3.13c1.18,0.86,2.16,1.3,2.92,1.3c-0.61-1.94-1.1-3.84-1.58-5.81c1.71,1.41,1.99,4.04,4.17,3.71
						c-0.67-2.73-4.22-2.79-3.64-5.51c2.72,0.96,3.71,2.83,3.6,0.14c1.09,0.97,1.41,1.89,1.33,2.77c0.01-2.21,2.43-2.94,1.24-5.73
						c3.06,1.67,3.52-3.62,6.45,0.85c-0.36-1.28-0.21-4.84,0.82-5.79c0.69,3.36,1.76,2.7,3.1,2.1c1.34-0.63,2.88-1.32,4.31,1.78
						c-0.71-2.93,0.46-4.23,1.88-5.38c1.43-1.16,3.25-1.99,4.01-4.16c0.03,0.49,0.11,1.47-0.27,1.34c1.83-0.41,3.07,0.98,4.56,1.47
						c-1.75-4.37,0.45-6.56,0.84-9.82c3.86,3.32,0.82,5.63,3.19,9.37c-1.6-3.46,2.15-5,0.28-7.66c2.66,1.98,1.92,0.73,4.13,4.06
						c-1.78-5.61,1.14-1.5,1.29-5.39c3.38,1.91,2.42,4.99,4.46,2.41c0.9,0.64,0.93,1.66,0.75,2.51
						C70.15,262.01,69.75,262.7,69.75,262.7z M134.98,239.05c0.01,0.03,0.01,0.05,0.01,0.07c-0.6,0.18-1.11,0.33-1.44,0.42
						C133.85,239.44,134.26,239.31,134.98,239.05z M140.97,238.02c-0.75-0.01-1.67,0.13-2.63,0.3c-0.4-1.12-0.36-2.34,0.25-2.37
						C138.39,236.77,139.91,237.2,140.97,238.02z M124.74,216.94c0.87-0.62,1.27-0.01,1.51,0.65c-0.43,0.13-0.93,0.32-1.57,0.65
						c-0.01,0.13-0.04,0.28-0.05,0.43C124.62,218.02,124.63,217.41,124.74,216.94z"/>
					<path class="st0" d="M123.73,221.57c-0.12,0.09-0.18,0.25-0.35,0.3c0.24,0.26,0.46,0.49,0.68,0.66
						c0.06-0.38,0.12-0.76,0.17-1.1C124.06,221.48,123.88,221.53,123.73,221.57z"/>
					<path class="st0" d="M563.13,235.97l-0.14,0c0.16,0.05,0.31,0.11,0.48,0.25C563.31,236.14,563.25,236.05,563.13,235.97z"/>
					<polygon class="st0" points="225.27,219.05 224.9,218.28 224.71,219.19 					"/>
					<path class="st0" d="M596.03,225.33c0.22,0.21,0.5,0.39,0.84,0.46C596.73,225.62,596.41,225.48,596.03,225.33z"/>
					<path class="st0" d="M607.95,218.32c0.76,0,1.51-0.01,2.28,0.01C609.15,218.16,608.47,218.23,607.95,218.32z"/>
					<path class="st0" d="M617.92,214.49c-0.17-0.58-0.34-0.99-0.51-1.37c-0.01-0.01-0.02,0-0.03-0.01L617.92,214.49z"/>
					<path class="st0" d="M445.12,258.54c-0.21-0.12-0.44-0.22-0.67-0.27C442.75,257.8,443.78,258.32,445.12,258.54z"/>
					<path class="st0" d="M503.81,257.25c-0.56,0.6-1.12,1.2-1.71,1.56C503.03,259.09,503.75,259.16,503.81,257.25z"/>
					<path class="st0" d="M418.67,196.9c0.02,0,0.03-0.01,0.06-0.01c-0.04-0.11-0.05-0.22-0.07-0.33L418.67,196.9z"/>
					<path class="st0" d="M499.67,258.71c0.92,0.69,1.7,0.56,2.43,0.11C501.34,258.57,500.45,258.21,499.67,258.71z"/>
					<path class="st0" d="M660.5,199.27l0.52,0.01c-0.06-0.21-0.08-0.4-0.08-0.54L660.5,199.27z"/>
					<path class="st0" d="M660.94,198.74l0.44-0.53C661.13,198.28,660.92,198.36,660.94,198.74z"/>
					<path class="st0" d="M662.32,197.1c-0.32,0.36-0.63,0.73-0.94,1.11C661.77,198.11,662.29,198.09,662.32,197.1z"/>
					<path class="st0" d="M646.81,201.76l0.25,1.21C647.06,202.7,646.99,202.31,646.81,201.76z"/>
					<path class="st0" d="M642.96,203.51c1.05-0.08,3.23,1.57,4.29,0.42l-0.19-0.96C647.04,204.86,643.17,201.25,642.96,203.51z"/>
					<path class="st0" d="M620.24,196.71l3.86-0.74c-1.14-0.9-2.68-2.12-1.22-3.15C616.84,191.37,624.99,195.05,620.24,196.71z"/>
					<path class="st0" d="M608.81,200.46c1.53-1.52-0.93-1.65-1.19-2.35C607.02,199.79,606.9,200.2,608.81,200.46z"/>
					<path class="st0" d="M540.68,242.67l-0.45-3.04C539.01,240.31,540.45,240.8,540.68,242.67z"/>
					<polygon class="st0" points="526.88,260.23 528.57,262.05 529.15,259.2 					"/>
					<polygon class="st0" points="517.07,238.59 517.71,238.15 515.25,239.27 					"/>
					<path class="st0" d="M443.35,173.93l-3.46,1.59C440.87,176.38,445.02,175.41,443.35,173.93z"/>
					<path class="st0" d="M396.92,125.31c0.01-2.03-1.49-3.9-3.23-2.49C395.11,123.54,396.02,125.49,396.92,125.31z"/>
					<polygon class="st0" points="225.66,184.78 226.05,183.12 224.67,185.08 					"/>
				</g>
			</g>
		</g>
	</g>
</g>
</svg>
